<?xml version="1.0" encoding="utf-8"?>
<!-- Generator: Adobe Illustrator 27.9.4, SVG Export Plug-In . SVG Version: 9.03 Build 54784)  -->
<svg version="1.1" id="Calque_1" xmlns="http://www.w3.org/2000/svg" xmlns:xlink="http://www.w3.org/1999/xlink" x="0px" y="0px"
	 viewBox="0 0 1476.4 859.6" style="enable-background:new 0 0 1476.4 859.6;" xml:space="preserve">
<style type="text/css">
	.st0{fill:#92B227;}
	.st1{fill:#799114;}
</style>
<g>
	<path d="M1467.3,449.4c0.3-15.6-16.2-29.2-31.5-25.9c23.7-11.4,21.6-53-3.2-61.9c11-0.6,20.8-10,22-20.9c1.2-10.9-6.4-22.2-17-25.2
		c16.6-1.6,30.4-17.8,29.4-34.5c-1.1-16.7-16.8-31-33.5-30.5c23.7-4.7,34-39.9,16.6-56.7c14.6-4,25.1-19.4,23.6-34.4
		c-1.5-15-14.8-28-29.9-29.1c13.5,1.2,26.8-10.4,27.4-24c0.6-13.6-11.5-26.4-25.1-26.4c14.9-1.1,23.7-20.3,17.4-33.9
		c-6.3-13.5-23-19.9-37.8-17.7s-27.6,11.4-38.1,22c-4.4-15.1-19.5-26.3-35.2-26.2c-15.7,0.1-30.6,11.7-34.7,26.8
		c-5.1-15.5-21.2-26.7-37.5-26.2s-31.7,12.6-35.9,28.5c3.1-14.9-8.4-31.2-23.5-33.2c-15.1-2.1-30.5,10.5-31.6,25.7
		c-6.4-14.3-22.7-23.5-38.2-21.7S1122,38.3,1119,53.7c-2.4-17.2-18-31.7-35.4-32.7c-17.4-1.1-34.7,11.3-39.2,28.1
		c-0.8-15.7-14.5-29.8-30.2-31c-15.7-1.2-31.4,10.5-34.8,25.9c-0.1-17.9-16.6-34.1-34.5-33.8c-16.1,0.3-30.6,14-32.9,29.7
		c-0.6-16.5-15.1-32-31.8-32.4c-18.5-0.5-35.3,17.5-33.5,36c-1-16.9-16.5-31.5-33.4-31.6c-16.9-0.1-32.5,14.4-33.7,31.3
		c-3.4-16.2-19.8-28.5-36.3-27.3c-14.5,1-27.4,12.4-31,26.3c0.9-15.9-12.1-32.2-28.3-33.4c-17.4-1.4-33.8,15-33.3,32.2
		c-1.9-18.3-19.8-33.7-38.3-32.3c-16.2,1.2-30.1,15.2-32.6,31.1c-2-15.2-15.6-28.9-31.2-29.3c-18.6-0.5-35.4,17.9-33.1,36.4
		c-5.2-20.5-21.6-39.6-42.6-41.4c-16.3-1.4-32.9,11.6-36,26.7C433,20.5,422.1,11,409.7,10.6c-16.9-0.5-32.2,16.3-30.1,33.1
		c-3.8-14.8-18.9-25.8-34.2-25c-13.5,0.8-25.7,10.7-29.9,23.4c1.8-14.7-9.1-30.5-24-32.7c-16.7-2.5-33.6,12.8-32.8,29.7
		c-4.2-21-24.9-37.3-46.2-36.6S171.6,21,168.8,42.2c0.5-20.5-22.1-37.9-41.7-32.3c-17.4,5-27.1,26.5-21.3,43.2
		C94,34.5,64.4,28.6,47.3,43.3c-18.6,16.1-15.2,50.5,6,62.8c-13.7-0.5-26.9,10.8-28.2,24.5c-1.4,14.2,10.4,28.3,24.6,29.6
		c-17.6-2-35.1,13.3-35.5,31c-0.3,15.9,13.2,30.4,28.8,32.3c-14.3,1-27.6,13.1-28.8,27.6c-1.4,16.3,12.6,32.2,29,32.9
		c-16.3-1.1-31.9,13.3-32.1,29.6c-0.1,13.8,10.8,26.5,24,29.6C21.6,344.1,8.8,356,8.8,369.8c-0.1,15.6,16.1,28.9,31.3,26.5
		c-15,3.5-26.4,19.1-24.7,34.5c1.6,14.8,15,27.2,29.8,28.3c-14.8,0.9-28.4,13.4-29.8,28.2c-1.3,13.8,8.1,27.6,20.9,32.4
		c-15.9-1.6-32.9,11.4-33.7,27.8c-0.7,14.9,12.2,28.3,26.6,30.5c-10.3,3.2-18.7,13-18.7,23.9c0.1,14.2,14.4,26.4,28.4,24.7
		c-11.9,2.4-21.5,14.1-21,26.4c0.5,11.3,9.3,21.4,20.2,24.1C22.4,676.4,6.6,689,4.8,704.8c-1.9,17.4,13.7,34.6,31.2,34.5
		c-15.2-0.7-28.3,16.6-23.5,31c4.5,13.5,23,19.6,35,12.4C29.9,796.5,31.2,829,51,840.4c20.6,11.9,51.2-5.1,52-28.9
		c-0.5,15.7,13.4,30.5,29.2,30.9c15.8,0.4,30.4-13.7,30.6-29.5c-0.9,15.6,13.2,30.4,28.8,30.2c15.6-0.1,29.4-15.1,28.3-30.7
		c0.6,15.8,14.4,30,30.2,31c15.8,1,31.3-11.3,33.9-26.9c2,11,12.9,19.7,24.1,19.1c11.2-0.6,21.1-10.4,21.9-21.6
		c-0.9,16.6,13.8,32.4,30.4,32.7s31.9-15,31.5-31.6c1.1,13.8,12.6,26.1,26.3,28s28.2-6.8,32.9-19.7c-0.1,13.5,11.7,26.1,25.3,26.6
		c13.5,0.6,26.4-10.9,27.4-24.4c3.3,17.4,19.9,31.3,37.6,31.5c17.7,0.2,34.6-13.3,38.3-30.6c3.2,14.2,18,24.8,32.5,23.2
		c14.5-1.6,26.6-15.3,26.6-29.8c14.9,25.6,59.3,24.3,72.7-2.1c3.3,17.6,20,31.7,38,32.1c17.9,0.4,35.2-13.1,39.2-30.6
		c2.6,12.8,15.4,22.8,28.5,22.1s24.8-11.8,26.2-24.8c10,27,57.1,25.8,65.8-1.7c2.7,15.9,17.5,28.9,33.6,29.6s31.9-11.2,35.8-26.9
		c3,16.2,18.8,29,35.3,28.6c16.5-0.4,31.6-13.9,33.9-30.2c3.7,13.3,17.2,23.2,31,22.6c13.8-0.6,26.5-11.6,29-25.1
		c3.3,14.5,16.9,25.9,31.8,26.8c14.8,0.9,29.6-9,34.6-23c3.5,14.9,19.5,25.8,34.6,23.4c15.2-2.3,27.1-17.5,25.9-32.8
		c3.5,15,17.4,27,32.7,28.2c15.3,1.3,31-8.2,36.9-22.4c1.5,15.5,16.4,28.4,31.9,27.8c13.9-0.6,26.3-11.9,29-25.4
		c0,12.6,10.3,24.8,23,26c14.4,1.3,28.3-11.9,27.8-26.3c11.1,13.9,36,12.8,45.8-2c9.9-14.8,1.3-38.2-15.9-43.1
		c13.2-4.6,21.9-19.7,19.3-33.4c-2.5-13.3-15.3-23.9-28.8-24.1c13.1-0.5,25.1-12,25.7-25.2c0.7-13.6-10.8-26.7-24.4-27.8
		c13.8-3.4,24.4-16.9,24.4-31.1c0.1-14.2-10.4-27.8-24.1-31.3c15-2.2,27.1-16.8,26.5-31.9s-13.7-28.8-28.8-29.9
		c16.2-1.1,30-16.5,29.4-32.7c-0.5-13-10.4-24.8-22.7-28.7C1455.2,473.6,1467.1,462.4,1467.3,449.4z"/>
</g>
<g>
	<path class="st0" d="M1433.2,473.3c16.2-0.3,31.3,13.9,32,30.1c0.7,16.2-13.2,31.6-29.4,32.7c15.1,1.2,28.2,14.8,28.8,29.9
		c0.6,15.1-11.5,29.7-26.5,31.9c13.7,3.6,24.2,17.1,24.1,31.3c-0.1,14.2-10.7,27.7-24.4,31.1c13.6,1.1,25.1,14.1,24.4,27.8
		c-0.7,13.6-13.4,25.5-27.1,25.2c14-0.5,27.6,10.3,30.1,24.1c2.6,13.8-6.1,28.8-19.3,33.4c17.1,4.9,25.7,28.2,15.9,43.1
		c-9.9,14.8-34.7,15.9-45.8,2c0.5,14.4-13.4,27.6-27.8,26.3c-14.4-1.3-25.6-16.8-22.5-30.9c-0.2,15.5-14,29.7-29.5,30.3
		c-15.5,0.6-30.4-12.3-31.9-27.8c-5.9,14.2-21.6,23.7-36.9,22.4s-29.2-13.3-32.7-28.2c1.2,15.3-10.8,30.5-25.9,32.8
		s-31.2-8.5-34.6-23.4c-5,14-19.8,23.8-34.6,23s-28.4-12.3-31.8-26.8c-2.5,13.6-15.2,24.6-29,25.1c-13.8,0.6-27.3-9.3-31-22.6
		c-2.2,16.3-17.4,29.8-33.9,30.2s-32.2-12.4-35.3-28.6c-3.9,15.7-19.6,27.5-35.8,26.9S911.9,831,909.2,815
		c-8.7,27.4-55.8,28.6-65.8,1.7c-1.3,13-13.1,24.2-26.2,24.8c-13.1,0.6-25.9-9.3-28.5-22.1c-4,17.5-21.3,30.9-39.2,30.6
		s-34.6-14.5-38-32.1c-13.4,26.4-57.8,27.7-72.7,2.1c0.1,14.6-12.1,28.2-26.6,29.8c-14.5,1.6-29.4-9-32.5-23.2
		c-3.7,17.3-20.6,30.8-38.3,30.6c-17.7-0.2-34.3-14.1-37.6-31.5c-1,13.5-13.9,25-27.4,24.4c-13.5-0.6-25.4-13.1-25.3-26.6
		c-4.8,13-19.2,21.7-32.9,19.7c-13.7-1.9-25.2-14.2-26.3-28c0.3,16.6-14.9,31.9-31.5,31.6c-16.6-0.3-31.3-16.1-30.4-32.7
		c-0.8,11.2-10.7,21-21.9,21.6c-11.2,0.6-22.2-8-24.1-19.1c-2.6,15.6-18.2,27.9-33.9,26.9c-15.8-1-29.6-15.2-30.2-31
		c1.1,15.6-12.7,30.6-28.3,30.7s-29.7-14.6-28.8-30.2c-0.2,15.8-14.9,29.8-30.6,29.5c-15.8-0.4-29.7-15.2-29.2-30.9
		c-0.8,23.8-31.4,40.8-52,28.9C30.3,828.5,29.8,793.5,50,781c-11.7,9.7-32.6,3.8-37.4-10.7c-4.8-14.5,8.2-31.8,23.5-31
		c-17.5,0.2-33.1-17-31.2-34.5s20.9-30.9,37.9-26.9c-12.9-0.4-24.4-11.9-24.9-24.8c-0.5-12.9,10.1-25.2,22.8-26.7
		c-14.5,3.1-30.2-9.6-30.3-24.4s15.5-27.6,30.1-24.6c-18.1,5.3-38.9-11-38-29.8c0.9-18.8,23.2-33.1,40.7-26.1
		c-16.2-1.7-29.4-17.9-27.8-34.1s17.6-29.6,33.8-28.2c-16.2,1.1-32-12.2-33.8-28.4s10.8-32.5,26.9-35c-15.8,4-33.5-9.8-33.5-26.1
		s17.9-30,33.7-25.9c-16.3,0.8-31.6-14-31.5-30.3c0.2-16.3,15.8-30.8,32.1-29.6c-16.3-0.7-30.4-16.6-29-32.9s18-29.6,34.2-27.4
		c-17.6,1.3-34.5-14.8-34.1-32.5s17.9-33,35.5-31c-14.2-1.3-25.9-15.4-24.6-29.6c1.4-14.2,15.6-25.9,29.8-24.4l-0.6,0.4
		c-22-11.8-25.8-47-6.9-63.3s53.2-7.3,61.6,16.1c-11.3-17-1.5-43.9,18.2-49.5s42.3,11.8,41.7,32.3c2.8-21.2,22.3-38.9,43.6-39.6
		s42,15.6,46.2,36.6C257.9,22.3,274.9,7,291.5,9.4c16.7,2.5,28.4,22.1,22.8,38c2.1-15.1,15.9-27.8,31.1-28.7
		c15.3-0.9,30.4,10.2,34.2,25c-2.1-16.8,13.2-33.6,30.1-33.1s31.2,18.2,28.1,34.8c-7.5-19.8,13.9-41.9,35-40.1s37.4,20.9,42.6,41.4
		c-2.3-18.5,14.5-37,33.1-36.4c18.6,0.5,34.3,20,31,38.3c-2.3-19.1,13.6-38.6,32.8-40c19.2-1.4,37.9,15.4,38.5,34.7
		c-2.2-18.1,14.9-36,33.1-34.6c18.2,1.4,32.3,21.8,27.3,39.3c1.1-16.5,15.5-31,32-32.2c16.5-1.2,32.9,11.2,36.3,27.3
		c1.2-16.8,16.8-31.4,33.7-31.3c16.9,0.1,32.4,14.8,33.4,31.6c-1.8-18.4,15-36.5,33.5-36s34.3,19.4,31.5,37.7
		c-0.6-17.9,15.3-34.7,33.2-35s34.4,15.8,34.5,33.8c3.3-15.4,19-27.1,34.8-25.9c15.7,1.2,29.4,15.3,30.2,31
		c4.6-16.8,21.8-29.2,39.2-28.1c17.4,1.1,33,15.5,35.4,32.7c3-15.4,16.7-28,32.3-29.8c15.6-1.8,31.8,7.4,38.2,21.7
		c1-15.2,16.5-27.7,31.6-25.7s26.6,18.3,23.5,33.2c4.2-15.8,19.5-28,35.9-28.5c16.3-0.5,32.4,10.7,37.5,26.2
		c4.1-15.2,19-26.7,34.7-26.8c15.7-0.1,30.8,11.1,35.2,26.2c10.5-10.6,23.3-19.8,38.1-22s31.5,4.1,37.8,17.7s-2.5,32.8-17.4,33.9
		c13.6,0.1,25.7,12.9,25.1,26.4c-0.6,13.6-13.9,25.2-27.4,24c15.1,1.1,28.4,14.1,29.9,29.1s-9,30.4-23.6,34.4
		c17.5,16.8,7.2,52-16.6,56.7c16.7-0.5,32.4,13.8,33.5,30.5c1.1,16.7-12.8,32.9-29.4,34.5c10.6,3,18.2,14.3,17,25.2
		s-11,20.3-22,20.9c24.8,8.9,26.9,50.5,3.2,61.9c15.3-3.3,31.8,10.3,31.5,25.9c-0.3,15.6-17.3,28.6-32.5,24.7"/>
	<g>
		<path d="M1433.2,475.8c14.8,0.3,28.9,12.4,29.5,27.6c0.6,15.2-12,28.7-26.9,30.2c-3.2,0.3-3.2,4.6,0,5c14.1,1.6,26.3,14,26.3,28.5
			c0,14.1-11.2,25.9-24.7,28.5c-2.5,0.5-2.2,4.2,0,4.8c12.6,3.7,22.4,15.5,22.3,28.9c-0.1,13.5-10,25-22.6,28.6
			c-2.9,0.8-2,4.6,0.7,4.9c12.2,1.5,22.6,12.7,21.9,25.3c-0.7,12.7-12.3,22.4-24.6,22.7c-3.2,0.1-3.2,5,0,5
			c12.6,0,24.7,8.7,27.5,21.3c2.9,13-5.2,26.5-17.4,31.3c-2.3,0.9-2.5,4,0,4.8c15.3,5,23.7,25.6,14.4,39.4
			c-9.4,13.9-31.4,13.7-41.9,1.5c-1.5-1.7-4.2-0.3-4.3,1.8c-0.2,13.4-12.6,25.9-26.6,23.6c-12.5-2.1-21-15.4-18.8-27.6
			c-1.6-0.2-3.3-0.4-4.9-0.7c-0.7,14.1-12.4,27.3-27,27.8c-14.5,0.5-27.5-11.1-29.4-25.3c-0.3-2.1-3.5-3.8-4.7-1.3
			c-5.9,13-19.2,22.1-33.7,21.3c-15-0.9-27.5-12.2-31.3-26.5c-0.7-2.7-5-2.2-4.9,0.7c0.6,14.6-10.2,29.2-25.4,30.5
			c-13.8,1.2-26.7-8.7-30.3-21.8c-0.7-2.6-4-2.2-4.8,0c-5.3,13.4-19.3,22.7-33.9,20.9c-13.4-1.6-24.3-11.9-27.7-24.8
			c-0.6-2.3-4.3-2.4-4.8,0c-2.8,12.5-13.5,22.7-26.6,23.3c-13,0.6-24.8-8.6-28.6-20.8c-0.7-2.2-4.4-2.6-4.8,0
			c-2.6,15.2-15.6,28-31.4,28.4c-15.8,0.4-29.5-11.7-32.9-26.7c-0.5-2.5-4.2-2.3-4.8,0c-4.2,14.8-18.6,26.2-34.4,25
			c-15.1-1.2-27.3-13.2-30.2-27.7c-0.5-2.6-4.1-2.1-4.8,0c-8.7,25-51,26.3-61,1.7c-0.8-2-4.4-2.8-4.8,0c-1.7,11.9-11.3,22.3-23.8,23
			c-12.4,0.7-23.2-8.6-26.1-20.3c-0.6-2.4-4.2-2.4-4.8,0c-4.3,16.4-19.6,29-36.8,28.7c-17.2-0.3-31.9-13.8-35.6-30.3
			c-0.5-2.1-3.6-2.4-4.6-0.6c-13.3,24.7-53.6,26.1-68.3,2.1c-1.3-2.1-4.6-1.2-4.7,1.3c-0.5,13.5-10.7,25.8-24.4,27.3
			c-13.7,1.5-26.3-8.3-29.8-21.3c-0.6-2.4-4.2-2.4-4.8,0c-4,16.2-18.9,28.9-35.9,28.8c-17-0.2-31.6-13.4-35.2-29.7
			c-0.7-3-4.6-1.9-4.9,0.7c-1.4,12.1-12.4,22.5-24.9,21.9c-12.6-0.6-22.4-11.9-22.8-24.1c-0.1-3-3.9-3.2-4.9-0.7
			c-4.8,11.8-17.4,19.7-30.2,17.9c-12.8-1.8-22.7-12.8-24.1-25.4c-0.4-3.1-4.9-3.3-5,0c-0.3,15.3-13.3,29.4-29,29.1
			c-15.8-0.3-28.2-15-27.9-30.2c0.1-3.3-4.6-3.1-5,0c-1.2,10.2-9.9,19-20.4,19.1c-10.2,0.1-18.5-7.7-20.7-17.2
			c-0.5-2.3-4.3-2.4-4.8,0c-2.9,14.1-15.7,25.6-30.5,25.1c-15.2-0.5-27.7-13.7-28.8-28.6c-0.2-3.2-5.1-3.2-5,0
			c0.4,14.2-11.1,28.1-25.8,28.2c-14.7,0.1-26.5-13.5-26.3-27.7c0-3.2-4.8-3.2-5,0c-0.8,14.5-13.3,27.2-28.1,27
			c-14.8-0.3-26.6-14.1-26.7-28.4c0-3.2-4.8-3.2-5,0c-1.4,22.3-30.3,38.8-49.7,25.9c-18-12.1-17.3-42.5,0.5-54.3
			c-0.8-1.4-1.7-2.9-2.5-4.3c-10.1,7.7-26.4,4.9-32.6-6.6c-7.5-13.7,5.5-30.4,19.9-30.5c3.2,0,3.2-4.9,0-5
			c-16.5-0.4-31.5-16.3-28.5-33.2c2.7-15.6,19.4-26.2,34.6-23.2c0.2-1.6,0.4-3.3,0.7-4.9c-11.9-0.9-22.4-11-22.4-23.3
			c0-11.9,9.7-21.4,21-23.2c-0.4-1.6-0.9-3.2-1.3-4.8c-12.6,2.1-25.8-7.5-27-20.4c-1.2-14.2,13.1-25.9,26.8-23.8c0-1.6,0-3.2,0-4.8
			C22.8,579.4,3,564.4,5.2,546.1c2.1-17.1,21.6-27.8,37.3-22.2c0.4-1.6,0.9-3.2,1.3-4.8c-14.7-2.1-27.1-15.4-26-30.7
			c1.1-15.8,16.1-27.4,31.4-26.7c0-1.7,0-3.3,0-5c-15.1,0.4-29.6-10.8-31.2-26.2c-1.6-15.4,10.2-29.4,25-32.2
			c-0.4-1.6-0.9-3.2-1.3-4.8c-14.3,3-30.4-8.5-30.3-23.7c0.1-15.2,16.2-26.6,30.5-23.5c0.2-1.6,0.4-3.3,0.7-4.9
			c-14.9,0.2-29.1-12.3-29-27.8c0.2-15.5,14.7-27.6,29.6-27.1c3.2,0.1,3.2-4.7,0-5c-14.9-1.2-27.9-15.1-26.5-30.4
			c1.4-15.5,16.8-26.3,31.7-24.9c0-1.7,0-3.3,0-5c-16.3,0.6-32-13.1-31.6-30c0.4-16.9,16.7-29.7,33-28.5c3.3,0.2,3.1-4.6,0-5
			c-13.3-1.8-24.2-14.9-21.9-28.5c2.2-12.7,14.6-21.3,27.1-20.6c-0.4-1.6-0.8-3.1-1.3-4.7c-0.3,0.2,0.5,0-0.3-0.9
			c-0.9-1-2.5-1.8-3.6-2.7c-2.2-1.9-4-4.2-5.6-6.6c-3-4.6-5-9.9-5.8-15.3c-1.8-11.4,1-24.2,9.6-32.3c17.6-16.7,50.1-8.2,58.7,13.9
			c1.5-0.6,3-1.3,4.6-1.9c-9.6-15.5-2.5-38.9,15-45.3c19-7,40.1,10,40.3,29.3c0,2.7,4.5,3.5,4.9,0.7c3.1-20,20.5-37.1,41.2-37.8
			c20.7-0.7,39.3,14.9,43.8,34.8c0.6,2.8,4.9,2.1,4.9-0.7c-0.1-16.2,16-31,32.4-26.7c14.4,3.8,22.6,20.4,18.3,34.3
			c1.6,0.4,3.2,0.9,4.8,1.3c2.5-14,14.1-26,28.7-26.8c14.5-0.9,27.7,9.5,31.8,23.1c0.8,2.6,5.2,2.2,4.9-0.7
			c-1.3-15.2,10.8-30.4,26.6-30.6c16.1-0.2,28.9,16.2,26.7,31.7c1.6,0,3.2,0,4.8,0c-6.4-19.4,13.5-38.5,32.5-36.9
			c20.7,1.7,35.2,20.9,40.2,39.5c0.7,2.6,5.2,2.2,4.9-0.7c-1.5-17.3,12.7-34.4,30.6-33.9c17.4,0.4,31,18.4,28.6,35.1
			c1.6,0.2,3.3,0.4,4.9,0.7c-1.6-17.9,11.9-36,30.3-37.5c18.3-1.5,34.8,14.3,36,32.2c1.7,0,3.3,0,5,0c-1.4-16.8,13.2-33.6,30.6-32.1
			c17.1,1.4,28.9,20.1,24.9,36.2c1.6,0.2,3.3,0.4,4.9,0.7c1.5-15.5,14.7-29.1,30.5-29.7c15.4-0.7,29.2,10.9,32.8,25.5
			c0.7,2.9,4.6,2,4.9-0.7c1.6-15.5,15.4-28.9,31.2-28.8c15.9,0.1,29.4,13.6,30.9,29.1c0.3,3.2,5.2,3.2,5,0
			c-1.1-17.2,13.2-33.8,31-33.5c17.8,0.4,31,18.3,29,35.2c1.7,0,3.3,0,5,0c0-16.6,13.7-32.2,30.7-32.5c17-0.3,31.4,14.7,32,31.3
			c0.1,2.7,4.2,3.5,4.9,0.7c3.5-13.9,16.6-24.8,31.3-24.1c15.1,0.8,27.5,13.8,28.8,28.6c0.2,2.7,4.1,3.5,4.9,0.7
			c4.8-15.7,20.1-27.3,36.8-26.3c16.7,1.1,30.2,14.8,33,30.9c0.4,2.5,4.3,2.3,4.8,0c3.3-14.4,15.2-26.3,30.2-28
			c15-1.7,29.2,7.1,35.7,20.5c1.2,2.5,4.4,0.9,4.7-1.3c1.5-13.7,14.8-25,28.7-23.1c13.9,1.9,23.6,16.5,21.4,30
			c-0.5,3.1,3.9,4.5,4.8,1.3c4.3-14.4,17.2-25.6,32.4-26.6c15.9-1,30.7,9.6,36.1,24.3c0.8,2.3,4.1,2.5,4.8,0
			c4.3-14,17.4-24.8,32.3-25c14.9-0.1,28.3,10.4,32.8,24.4c0.6,1.8,2.8,2.5,4.2,1.1c14.9-14.7,36.1-28,57.4-18.5
			c9.1,4,16.6,12.4,16.2,22.8c-0.4,9.8-6.7,19.7-17,21c-3.1,0.4-3.3,4.8,0,5c12.2,0.6,23.3,11.3,22.6,23.9
			c-0.7,12.7-12.7,22-24.9,21.5c-3.3-0.1-3.1,4.7,0,5c13.9,1.5,26,12.8,27.4,26.9c1.4,14.2-8.4,27.4-21.7,31.7
			c-1.8,0.6-2.5,2.8-1.1,4.2c15.9,16.3,6.6,47.4-15.5,52.5c-2.8,0.6-2.1,4.9,0.7,4.9c15.3,0.1,30,12.3,31,28c1,15.6-11.6,30-26.9,32
			c-2.7,0.4-3.5,4-0.7,4.9c21.7,7.3,18.6,38.8-4.4,41.2c-2.8,0.3-3.3,3.9-0.7,4.9c23,9,24.1,46.2,2.6,57.3c-2.7,1.4-0.7,5,1.9,4.6
			c13.8-2.3,28.5,9.1,28.3,23.5c-0.2,14.5-15.8,25.1-29.3,22.3c-3.1-0.7-4.5,4.2-1.3,4.8c16.8,3.5,35.4-9.3,35.6-27.1
			c0.3-17.9-17.7-31.2-34.6-28.4c0.6,1.5,1.3,3,1.9,4.6c25.8-13.3,22.9-56-3.8-66.5c-0.2,1.6-0.4,3.3-0.7,4.9
			c12.3-1.3,23-10.4,24.5-23.1c1.4-12.6-7.1-24-18.8-27.9c-0.2,1.6-0.4,3.3-0.7,4.9c17.9-2.4,33-18.4,31.9-37
			c-1.1-18.5-17.9-32.9-36-33c0.2,1.6,0.4,3.3,0.7,4.9c25.8-5.9,36.2-42,17.7-60.9c-0.4,1.4-0.7,2.8-1.1,4.2
			c15.7-5,27.1-20.5,25.4-37.2c-1.7-16.8-16-29.5-32.3-31.3c0,1.7,0,3.3,0,5c14.9,0.6,29.3-11.1,29.9-26.5
			c0.6-15.4-12.7-28.2-27.6-28.9c0,1.7,0,3.3,0,5c23.9-2.9,28.2-34.3,11.2-48.2c-23.3-19.1-53.1-3.7-71.4,14.4
			c1.4,0.4,2.8,0.7,4.2,1.1c-5.2-16.1-20.4-28.2-37.6-28c-17.2,0.1-32.2,12.5-37.1,28.7c1.6,0,3.2,0,4.8,0
			c-6.1-16.8-22.7-29.1-40.9-28c-17.5,1-32.3,13.7-37.2,30.2c1.6,0.4,3.2,0.9,4.8,1.3c2.7-16.5-8.4-34-25.5-36.4
			c-17.1-2.4-32.6,11.5-34.4,28.1c1.6-0.4,3.1-0.8,4.7-1.3c-7.3-15.1-23.9-24.9-40.7-22.9c-16.9,2-30.6,15.3-34.4,31.6
			c1.6,0,3.2,0,4.8,0c-3.2-18.3-19-33.5-37.8-34.6c-18.9-1.1-36.2,12.2-41.6,29.9c1.6,0.2,3.3,0.4,4.9,0.7
			c-1.5-16.8-14.6-31.6-31.7-33.4c-17.6-1.9-34,10.8-38.2,27.6c1.6,0.2,3.3,0.4,4.9,0.7c-0.7-19.2-17.2-36.6-37-36.3
			c-19.7,0.4-35.7,18.2-35.7,37.5c0,3.3,4.6,3.1,5,0c2.3-19.7-13.8-39.7-34-40.2c-20.3-0.5-37.2,18.7-36,38.5c1.7,0,3.3,0,5,0
			c-1.7-18.2-17.1-34-35.9-34.1c-18.8-0.1-34.3,15.6-36.2,33.8c1.6-0.2,3.3-0.4,4.9-0.7c-4.3-17.5-21.4-30.9-39.7-29.1
			c-17.9,1.8-31.7,17-33.5,34.6c-0.3,2.8,4.2,3.4,4.9,0.7c4.6-18.6-8.4-39.6-27.8-42.3c-20.7-2.9-39.2,16.7-37.6,36.9
			c0.3,3.2,5.2,3.2,5,0c-1.3-20.6-19.8-38.6-41-37.2c-21,1.5-37.1,22-35.3,42.5c0.2,2.6,4.5,3.7,4.9,0.7
			c2.8-19.3-11.4-39.5-31.4-41.3c-21.2-2-39.4,18.2-37.6,38.8c1.6-0.2,3.3-0.4,4.9-0.7c-5.9-21.7-24.4-44.5-49-43.3
			c-20.9,1-40.4,22.2-33.4,43.3c0.7,2.1,4.4,2.6,4.8,0c2.6-18-10.7-36.7-29.5-37.9c-19.1-1.2-35.2,17-33.6,35.5
			c1.6-0.2,3.3-0.4,4.9-0.7c-4.7-15.8-19.8-27.7-36.6-26.8c-16.7,0.9-30.7,14.3-33.5,30.5c-0.6,3.1,3.8,4.4,4.8,1.3
			c5.4-17.1-5.7-37.3-23.6-40.9c-19-3.8-37,13.2-36.9,31.9c1.6-0.2,3.3-0.4,4.9-0.7c-5-21.9-25.8-39.2-48.6-38.4
			c-22.8,0.8-42.6,19.2-46.1,41.5c1.6,0.2,3.3,0.4,4.9,0.7c-0.2-22.6-24.5-42-46.6-34.1c-20.6,7.3-29.2,34.5-18,52.7
			c1.4,2.3,5.6,0.8,4.6-1.9C101.7,34.2,67.1,23.7,46.2,41C25,58.5,29.7,95.4,52.9,108.8c0.7,0.4,1.8,0.5,2.5,0
			c0.2-0.1,0.4-0.3,0.6-0.4c2.1-1.4,1.3-4.5-1.3-4.7c-15.6-0.9-30.9,10.9-32.3,26.9c-1.4,16.2,11.6,30.1,27.1,32.1c0-1.7,0-3.3,0-5
			c-19-1.4-37.6,14.1-38,33.5c-0.4,19.5,17.7,35.6,36.6,35c3.3-0.1,3.2-4.7,0-5c-17.6-1.6-35.3,11.9-36.7,29.9
			c-1.4,18.2,13.8,34,31.5,35.4c0-1.7,0-3.3,0-5c-17.7-0.5-34.4,14-34.6,32.1c-0.2,18.1,16.3,32.9,34,32.8c2.7,0,3.5-4.3,0.7-4.9
			c-17.4-3.8-36.8,9.7-36.8,28.3c-0.1,18.6,19.2,32.2,36.6,28.5c3.2-0.7,1.8-5.4-1.3-4.8c-17.2,3.3-30.6,20-28.7,37.7
			c2,17.8,18.7,31,36.2,30.5c3.2-0.1,3.2-4.8,0-5c-17.3-0.8-34,12.2-36.2,29.7c-2.2,18,11.9,35,29.5,37.5c3.1,0.5,4.4-3.7,1.3-4.8
			c-18.8-6.8-42.2,7.1-43.7,27.6c-1.6,21.4,21,38.3,41.1,33.2c2.3-0.6,2.5-4.4,0-4.8c-16.5-2.6-34,10.5-33.2,28
			c0.7,16.7,17.5,28.5,33.4,25.8c3.2-0.5,1.8-5.3-1.3-4.8c-14.2,2.3-25.7,15.4-24.6,30.1c1.1,14.3,13.4,25.1,27.3,26.3
			c2.8,0.2,3.4-4.4,0.7-4.9c-18.5-3.6-38.7,9.4-41,28.6c-2.4,19.5,14.5,37.1,33.6,37.6c0-1.7,0-3.3,0-5c-17.4,0-32.3,19-25.2,35.8
			c6.4,15.2,27.5,20.3,40.5,10.5c2.5-1.9,0.2-6.1-2.5-4.3c-20.9,13.8-21.9,48.8-0.5,62.9c22.8,15,55.6-4.2,57.2-30.2
			c-1.7,0-3.3,0-5,0c0.1,17.1,14.1,33,31.7,33.4c17.6,0.4,32.2-14.8,33.1-32c-1.7,0-3.3,0-5,0c-0.2,16.9,13.9,32.9,31.3,32.7
			c17.4-0.1,31.3-16.3,30.8-33.2c-1.7,0-3.3,0-5,0c1.3,16.9,14.5,31.8,31.7,33.4c17.6,1.7,33.9-11.7,37.4-28.6c-1.6,0-3.2,0-4.8,0
			c2.9,12.4,14.5,22,27.5,20.8c12.7-1.2,22-11.8,23.4-24c-1.7,0-3.3,0-5,0c-0.3,18,14.4,34.9,32.9,35.2c18.5,0.3,33.7-16.2,34-34.1
			c-1.7,0-3.3,0-5,0c1.7,15.1,13.1,28.3,28.5,30.4c15.4,2.1,29.9-7.5,35.7-21.5c-1.6-0.2-3.3-0.4-4.9-0.7
			c0.5,14.9,12.4,28.6,27.8,29.1c15.4,0.6,28.2-12.1,29.9-26.9c-1.6,0.2-3.3,0.4-4.9,0.7c4.1,18.4,20.8,33.1,40,33.3
			c19.2,0.2,36.2-14.1,40.7-32.4c-1.6,0-3.2,0-4.8,0c4.1,15.3,19.1,26.8,35.3,25c16.2-1.8,28.2-16.4,28.7-32.3
			c-1.6,0.4-3.1,0.8-4.7,1.3c16.7,27.1,61.8,26,77-2.1c-1.5-0.2-3-0.4-4.6-0.6c4.1,18.7,21,33.5,40.4,33.9
			c19.4,0.4,36.8-13.9,41.6-32.4c-1.6,0-3.2,0-4.8,0c3.4,13.9,16.3,24.6,30.9,24c14.5-0.6,26.5-12.6,28.6-26.7c-1.6,0-3.2,0-4.8,0
			c11.8,29.3,60.2,28.3,70.6-1.7c-1.6,0-3.2,0-4.8,0c3.4,16.7,17.8,30.1,35,31.3c18,1.3,34.4-11.7,39.2-28.6c-1.6,0-3.2,0-4.8,0
			c3.8,17.2,19.8,30.8,37.7,30.4c17.9-0.4,33.3-14.7,36.3-32.1c-1.6,0-3.2,0-4.8,0c4.5,14.3,18.1,25,33.4,24.4
			c15.3-0.6,28.1-12.4,31.4-27c-1.6,0-3.2,0-4.8,0c4,15.2,17.3,27.2,33.2,28.5c16.7,1.4,32-9.5,38-24.7c-1.6,0-3.2,0-4.8,0
			c4.3,15.9,20.4,27.7,37.1,25.3c16.9-2.4,29.1-18.6,28.4-35.3c-1.6,0.2-3.3,0.4-4.9,0.7c4.2,15.7,17.7,28.2,34.1,30
			c16.9,1.8,33.2-8.3,40.1-23.6c-1.6-0.4-3.1-0.8-4.7-1.3c2.3,16.8,16.9,30.9,34.4,30.3c17.4-0.6,31.1-15.9,32-32.8
			c0.1-2.8-4.4-3.5-4.9-0.7c-2.7,15.5,8,32.2,24.2,34c16.5,1.8,30.8-12.6,30.9-28.7c-1.4,0.6-2.8,1.2-4.3,1.8
			c12.6,14.7,38.8,14,49.8-2.5c11-16.7,1-40.8-17.4-46.7c0,1.6,0,3.2,0,4.8c14.1-5.5,23.6-20.2,21.2-35.5
			c-2.5-15.7-17.2-26.9-32.7-27c0,1.7,0,3.3,0,5c15-0.3,28.9-12.2,29.6-27.7c0.7-15.6-12-28.4-26.9-30.3c0.2,1.6,0.4,3.3,0.7,4.9
			c14.7-4.2,26.3-17.8,26.3-33.5c0-15.7-11.2-29.4-26-33.7c0,1.6,0,3.2,0,4.8c16.4-3.1,29.4-18.4,28.3-35.4
			c-1.1-16.6-15-29.6-31.2-31.4c0,1.7,0,3.3,0,5c17.5-1.8,32.5-17.1,31.9-35.2c-0.7-18-16.9-32.3-34.5-32.6
			C1430,470.7,1430,475.7,1433.2,475.8L1433.2,475.8z"/>
	</g>
</g>
<g>
	<path class="st1" d="M1362.4,467.2c14.6-0.2,28.1,12,28.7,25.9c0.6,13.9-11.8,27.2-26.4,28.1c13.6,1,25.3,12.7,25.8,25.8
		c0.5,13-10.4,25.6-23.8,27.5c12.3,3.1,21.7,14.7,21.7,27s-9.6,23.8-22,26.7c12.2,0.9,22.5,12.2,21.9,23.9
		c-0.6,11.7-12.1,21.9-24.3,21.7c12.6-0.4,24.7,8.9,27.1,20.8c2.3,11.9-5.5,24.8-17.4,28.8c15.4,4.2,23.1,24.3,14.3,37.1
		s-31.2,13.7-41.2,1.7c0.5,12.4-12.1,23.7-25,22.6c-12.9-1.1-23-14.5-20.2-26.6c-0.2,13.4-12.5,25.5-26.5,26.1
		c-13.9,0.5-27.3-10.6-28.6-23.9c-5.3,12.2-19.4,20.4-33.2,19.3s-26.2-11.4-29.4-24.3c1.1,13.2-9.7,26.2-23.3,28.2
		c-13.6,2-28-7.3-31.1-20.2c-4.5,12-17.8,20.5-31.1,19.8c-13.3-0.7-25.5-10.6-28.5-23.1c-2.3,11.7-13.7,21.1-26.1,21.6
		c-12.4,0.5-24.6-8-27.9-19.5c-2,14-15.6,25.7-30.4,26c-14.8,0.3-29-10.7-31.7-24.6c-3.5,13.5-17.6,23.7-32.1,23.1
		s-27.8-11.7-30.2-25.4c-7.8,23.6-50.1,24.6-59.1,1.4c-1.2,11.2-11.8,20.8-23.5,21.4s-23.2-8-25.6-19.1c-3.6,15-19.1,26.6-35.2,26.3
		c-16.1-0.3-31.1-12.5-34.1-27.6c-12,22.7-51.9,23.8-65.2,1.8c0.1,12.6-10.8,24.3-23.9,25.7c-13,1.4-26.4-7.7-29.2-20
		c-3.3,14.9-18.5,26.5-34.4,26.3s-30.8-12.2-33.7-27.1c-0.9,11.6-12.5,21.5-24.6,21c-12.1-0.5-22.8-11.3-22.7-22.9
		c-4.3,11.2-17.3,18.6-29.6,17s-22.7-12.2-23.6-24.1c0.3,14.3-13.4,27.5-28.3,27.2c-14.9-0.3-28.1-13.9-27.3-28.2
		c-0.7,9.6-9.6,18.1-19.7,18.6c-10.1,0.5-19.9-6.9-21.7-16.4c-2.3,13.4-16.3,24-30.5,23.2c-14.2-0.9-26.6-13.1-27.1-26.7
		c1,13.4-11.4,26.3-25.4,26.4c-14,0.1-26.7-12.6-25.9-26c-0.2,13.6-13.4,25.7-27.5,25.4c-14.1-0.3-26.7-13.1-26.2-26.6
		c-0.7,20.5-28.2,35.1-46.7,24.9c-18.5-10.3-19-40.4-0.8-51.2c-10.5,8.4-29.3,3.3-33.6-9.2c-4.4-12.4,7.4-27.3,21.1-26.7
		c-15.7,0.2-29.8-14.7-28-29.7c1.7-15,18.8-26.6,34.1-23.1c-11.6-0.4-21.9-10.2-22.4-21.3c-0.5-11.1,9-21.7,20.5-23
		c-13,2.7-27.1-8.2-27.2-21c-0.1-12.8,13.9-23.8,27-21.2c-16.2,4.6-34.9-9.5-34.2-25.7c0.8-16.2,20.8-28.5,36.5-22.5
		c-14.5-1.5-26.4-15.4-25-29.4s15.8-25.4,30.4-24.3c-14.5,0.9-28.7-10.5-30.3-24.4c-1.6-13.9,9.7-28,24.1-30.1
		c-14.2,3.5-30.1-8.4-30.1-22.5s16.1-25.8,30.2-22.3c-14.6,0.7-28.4-12-28.3-26c0.1-14,14.2-26.5,28.8-25.5
		c-14.7-0.6-27.3-14.3-26-28.3s16.2-25.5,30.7-23.6c-15.8,1.1-31-12.7-30.7-27.9c0.3-15.2,16.1-28.4,31.9-26.7
		c-12.8-1.1-23.3-13.3-22.1-25.5s14-22.3,26.7-21l-0.6,0.4c-19.7-10.2-23.2-40.5-6.2-54.5s47.7-6.3,55.4,13.9
		c-10.2-14.7-1.3-37.8,16.3-42.6c17.7-4.9,38,10.2,37.5,27.8c2.5-18.2,20-33.5,39.2-34.1c19.2-0.6,37.7,13.5,41.5,31.5
		C306.8,79,322.1,65.9,337,68s25.5,19,20.4,32.7c1.9-13,14.3-23.9,28-24.7c13.7-0.7,27.3,8.7,30.7,21.5C414.3,83,428,68.5,443.2,69
		c15.2,0.4,28,15.7,25.2,30c-6.7-17,12.5-36,31.4-34.5c18.9,1.5,33.6,18,38.3,35.6c-2.1-15.9,13-31.8,29.8-31.4
		c16.7,0.5,30.8,17.2,27.8,33c-2.1-16.5,12.2-33.2,29.5-34.5c17.3-1.2,34,13.2,34.5,29.8c-2-15.6,13.4-31,29.7-29.8
		c16.3,1.2,29,18.7,24.5,33.9c1-14.2,14-26.7,28.8-27.7c14.8-1,29.5,9.6,32.6,23.5c1.1-14.5,15.1-27,30.3-26.9
		c15.2,0.1,29.1,12.7,30,27.2c-1.6-15.9,13.4-31.4,30.1-31c16.6,0.4,30.8,16.7,28.3,32.4c-0.6-15.4,13.7-29.9,29.8-30.1
		c16.1-0.3,30.9,13.6,31,29.1c3-13.3,17.1-23.4,31.2-22.3c14.1,1.1,26.4,13.2,27.2,26.7c4.1-14.5,19.6-25.1,35.2-24.2
		c15.6,0.9,29.6,13.4,31.8,28.2c2.7-13.2,15-24.1,29-25.7s28.5,6.4,34.3,18.7c0.9-13.1,14.8-23.9,28.4-22.1s23.8,15.8,21.1,28.6
		c3.8-13.6,17.5-24.1,32.2-24.5c14.7-0.4,29.1,9.2,33.7,22.6c3.7-13,17.1-23,31.2-23.1c14.1-0.1,27.7,9.6,31.6,22.6
		c9.4-9.1,20.9-17,34.2-19s28.3,3.6,33.9,15.2s-2.3,28.2-15.7,29.2c12.2,0.1,23.1,11.1,22.5,22.7c-0.6,11.7-12.5,21.7-24.6,20.6
		c13.5,0.9,25.5,12.1,26.8,25c1.3,12.9-8.1,26.1-21.2,29.6c15.7,14.4,6.4,44.7-14.9,48.8c15-0.4,29.1,11.9,30.1,26.3
		c1,14.3-11.5,28.3-26.4,29.7c9.5,2.6,16.3,12.3,15.2,21.7c-1.1,9.4-9.9,17.5-19.8,18c22.2,7.7,24.1,43.5,2.8,53.3
		c13.7-2.8,28.5,8.9,28.3,22.3c-0.3,13.4-15.6,24.6-29.2,21.3"/>
</g>
</svg>
