<?xml version="1.0" encoding="utf-8"?>
<!-- Generator: Adobe Illustrator 27.9.4, SVG Export Plug-In . SVG Version: 9.03 Build 54784)  -->
<svg version="1.1" id="Calque_1" xmlns="http://www.w3.org/2000/svg" xmlns:xlink="http://www.w3.org/1999/xlink" x="0px" y="0px"
	 viewBox="0 0 2284.3 115.7" style="enable-background:new 0 0 2284.3 115.7;" xml:space="preserve">
<style type="text/css">
	.st0{fill:#B4ED64;}
</style>
<g>
	<g>
		<path class="st0" d="M1116.5,44.1c-16.9-18.4-46-27.3-67.8-15.1c-24.9,13.8-30.7,46.4-33.8,74.6c-9.5-30.5-19.8-62.5-43.2-84.2
			c-23.4-21.7-64.4-28-86.1-4.5c-19.4,20.9-15.2,53.4-9.2,81.6c-5.7-26.1-15-52.6-34.7-70.5c-20.4-18.5-54.9-24-75.2-5.4
			c-18.6,17.1-18.4,44.8-13.9,70.7c-3.7-16.8-8.6-33.3-18.3-47.3c-12.7-18.4-35.9-31.5-57.4-25.5c-18.3,5.1-31,23-34.7,41.7
			c-1.9,9.4-1.8,19-0.6,28.5c-6.3-20.7-16.4-40.1-31.7-55.2c-22-21.8-56-33-85.1-22.5c-20.7,7.5-37.2,25.7-42.6,47
			c-1.5,5.8-2.1,11.8-1.9,17.8c-3.9-7.3-8.5-14.1-14.1-20.2C450,38,422.8,28.1,401.5,39c-25.8,13.3-30.1,47.3-30.7,76.6h771.4
			c-0.1-0.9-0.1-1.7-0.2-2.6C1140,88.2,1133.4,62.5,1116.5,44.1z"/>
	</g>
	<g>
		<path class="st0" d="M223.3,34.6c-23.3-17.1-60-11.4-77.1,11.8c-10.4,14.1-13.1,31.3-12.4,49.1c-1.8-8-4.2-15.8-7.5-23.4
			c-8.6-19.6-24.8-37.1-45.7-41.7C51.5,23.9,21.4,45.3,9.5,72.8C5.1,83.1,1.2,99.2,0,115.7h256C253.1,85.5,247.6,52.3,223.3,34.6z"
			/>
	</g>
	<g>
		<path class="st0" d="M314.9,20.7c-21.2-0.4-39.8,16.1-48.5,35.5c-8.3,18.5-9.4,39.2-10,59.5h114.2c-0.4-20-1.2-40.4-9-58.8
			C353.5,37.7,335.7,21.1,314.9,20.7z"/>
	</g>
	<g>
		<path class="st0" d="M1882.8,39c-21.3-10.9-48.5-1.1-64.7,16.6c-5.6,6.1-10.2,12.9-14.1,20.2c0.1-6-0.5-12-1.9-17.8
			c-5.4-21.3-21.9-39.5-42.6-47c-29.1-10.5-63.1,0.7-85.1,22.5c-15.3,15.1-25.4,34.5-31.7,55.2c1.2-9.5,1.2-19.1-0.6-28.5
			c-3.7-18.7-16.4-36.6-34.7-41.7c-21.5-6-44.7,7.1-57.4,25.5c-9.7,14-14.6,30.5-18.3,47.3c4.5-25.9,4.7-53.6-13.9-70.7
			c-20.3-18.6-54.8-13.2-75.2,5.4c-19.7,17.9-29,44.4-34.7,70.5c6.1-28.1,10.2-60.6-9.2-81.6c-21.7-23.4-62.6-17.1-86.1,4.5
			c-23.4,21.7-33.8,53.7-43.2,84.2c-3.1-28.3-8.9-60.8-33.8-74.6c-21.8-12.1-50.9-3.3-67.8,15.1s-23.5,44.1-25.5,69
			c-0.1,0.8-0.1,1.7-0.2,2.6h771.4C1913,86.4,1908.6,52.3,1882.8,39z"/>
	</g>
	<g>
		<path class="st0" d="M2274.8,72.8c-11.9-27.5-42-48.9-71.3-42.5c-20.9,4.6-37.1,22.1-45.7,41.7c-3.3,7.5-5.7,15.4-7.5,23.4
			c0.7-17.8-2-35-12.4-49.1c-17.1-23.3-53.8-28.9-77.1-11.8c-24.3,17.8-29.7,50.9-32.7,81.1h256
			C2283.1,99.2,2279.2,83.1,2274.8,72.8z"/>
	</g>
	<g>
		<path class="st0" d="M1969.4,20.7c-20.8,0.4-38.5,17-46.7,36.2c-7.8,18.4-8.6,38.8-9,58.8h114.2c-0.7-20.3-1.7-41-10-59.5
			C2009.2,36.8,1990.6,20.2,1969.4,20.7z"/>
	</g>
</g>
</svg>
