<?xml version="1.0" encoding="utf-8"?>
<!-- Generator: Adobe Illustrator 27.9.4, SVG Export Plug-In . SVG Version: 9.03 Build 54784)  -->
<svg version="1.1" id="Calque_1" xmlns="http://www.w3.org/2000/svg" xmlns:xlink="http://www.w3.org/1999/xlink" x="0px" y="0px"
	 viewBox="0 0 686.9 514.2" style="enable-background:new 0 0 686.9 514.2;" xml:space="preserve">
<style type="text/css">
	.st0{fill:#92B227;}
	.st1{fill:#799114;}
	.st2{fill:#50621B;}
</style>
<g>
	<path class="st0" d="M684.9,514.2c-5.5-17.3-15.8-33-30.6-43.2c-16.5-11.4-38.9-14.8-57.5-7.9c-0.5,0.2-0.9-0.4-0.5-0.8
		c11.1-11.3,14.1-31,6.7-45.8c-9.5-19-31.2-29.3-52.4-31c-16.7-1.3-33.3,1.9-49.7,6c-0.6,0.1-0.9-0.7-0.4-0.9
		c14-7.9,23.2-24.7,22.5-41.1c-0.9-21-15.4-39.9-34-49.6c-17.6-9.2-38.3-11-58-8.5c-0.6,0.1-0.8-0.7-0.3-1
		c13.7-7.2,21.9-23,22.8-38.6c1-16.7-5.1-33.2-13.5-47.7c-6.6-11.5-15.5-22.8-28.3-26.3c-14.8-4-30.8,4.1-40.5,15.9
		c-7,8.6-11.5,18.9-15.1,29.6c-0.2,0.6-1.1,0.4-1-0.3c4.8-21.5,7.9-43.8,0.9-64.4c-8.3-24.6-37.1-44.1-60.5-32.9
		c-12.4,5.9-19.6,18-24.8,31c-0.2,0.6-1.1,0.3-1-0.3c4.3-23.1,0.6-47.7-10.6-68.3c-1.8-3.3-4-6.6-7.3-8.4c-3.5-1.8-7.6-1.5-11.5-0.8
		c-17.4,3.4-32.7,16.1-39.3,32.5c-0.2,0.5-1,0.4-1-0.2c0.1-37.8-26.3-74.5-62.4-86c-8.1-2.6-16.8-4-25.1-2.3
		c-19,4-30.7,22.4-39.9,39.8c-0.3,0.5-1,0.3-1-0.3C74.1,31,44.2,1.1,12.3,1.9C7.8,2.1,3.8,2.6,0,3.5v510.7H684.9z"/>
	<path d="M46,15c8.4,6.1,15.3,14.4,19.5,23.9c2.1,4.7,3.6,9.8,4.2,14.9c0.3,2.3,0.4,4.6,0.3,6.9c0,1.6-0.4,3.6,1.5,4.3
		c1.2,0.5,2.3-0.1,3-1.1c1.6-2.1,2.7-5,4-7.3c2.6-4.6,5.4-9,8.6-13.2c6.5-8.5,14.9-15.9,25.6-18.2c12.2-2.7,25.4,1.5,36.3,6.9
		c9.2,4.6,17.5,11,24.5,18.5c14.3,15.2,23.6,35.4,24.7,56.3c0.1,1.9-0.3,9.2,3.9,6.6c1.6-1,2.1-3.8,3-5.5c1.2-2.3,2.5-4.4,4-6.5
		c6.4-8.8,15.7-15.6,26-19c5.6-1.8,13.1-3.8,18,0.5c4.3,3.8,6.9,10.4,9,15.6c4.8,11.6,7.4,24.2,7.6,36.7c0.1,6.3-0.3,12.6-1.3,18.8
		c-0.3,1.5-0.8,3.4,0.7,4.5c1.2,0.8,2.6,0.3,3.4-0.7c1.5-1.8,2.1-4.9,3.2-7.1c1.2-2.5,2.6-5,4.1-7.4c2.9-4.6,6.4-8.9,10.8-12.2
		c17.4-13.1,39.9-4.7,53.2,10.1c17.2,19.3,16.3,47,11.8,70.9c-0.6,3-1.2,6.1-1.8,9.1c-0.3,1.6-0.7,3.5,1.2,4.2
		c1.2,0.5,2.4-0.1,3.1-1.1c1.5-2.3,2.1-5.8,3.1-8.3c4.5-11.2,10.8-22.2,20.7-29.4c9.2-6.6,21.1-10.1,32.1-6c10.9,4,18.4,14,24,23.7
		c12.1,20.7,20.1,47.3,7.1,69.5c-2.9,4.9-6.7,9.3-11.3,12.6c-1.5,1.1-8.2,4.3-3.8,6.7c1.7,0.9,4.8-0.1,6.7-0.3
		c3.2-0.3,6.5-0.4,9.8-0.5c6.3,0,12.6,0.4,18.9,1.6c22.6,4.1,44,17.8,52.6,39.9c4,10.4,4.5,21.7,0.7,32.2
		c-1.9,5.3-4.8,10.2-8.5,14.4c-1.8,2.1-3.8,4-6.1,5.7c-1.5,1.1-4.2,2.1-5.1,3.7c-0.6,1.1-0.4,2.6,0.7,3.3c1.9,1.2,5.4-0.5,7.3-1
		c6.9-1.6,13.9-3.1,20.9-3.9c12.2-1.5,24.8-1.5,36.7,1.7c20.4,5.5,40.3,21,40.7,43.8c0.1,5.2-0.8,10.4-2.6,15.3
		c-0.9,2.5-2.1,4.8-3.6,7c-1.2,1.9-3.7,3.7-4.4,5.8c-0.4,1.1-0.1,2.4,1,3c1.8,1,4.4-0.6,6.2-1.1c5.5-1.6,11.3-2.2,17-2.1
		c23.7,0.5,44.2,14.4,56.1,34.4c3.4,5.8,6.1,11.9,8.2,18.3h4.1c-5.2-16.7-14.8-32.2-28.8-42.9c-8.6-6.6-18.9-11-29.6-12.8
		c-5.3-0.9-10.7-1.2-16.1-0.8c-2.6,0.2-5.1,0.5-7.6,1.1c-1.3,0.3-2.6,0.6-3.8,0.9c0.3-0.5,0.7-0.9,1-1.4c1.4-2.1,2.6-4.4,3.6-6.8
		c1.9-4.6,3-9.5,3.3-14.5c0.7-10.1-2.3-20-8.2-28.1c-12.3-17-33.7-25-54.2-25.7c-7.4-0.3-14.8,0.3-22.1,1.3c-4,0.6-8.1,1.3-12.1,2.2
		c-1.5,0.3-3,0.7-4.5,1c2.1-1.8,4.1-3.7,5.8-5.9c3.5-4.2,6.2-8.9,8.2-14c4-10.4,4.1-21.8,0.7-32.3c-7-21.9-26.4-37.5-48.1-43.6
		c-6.8-1.9-13.8-3-20.8-3.4c-3.7-0.2-7.3-0.2-11-0.1c-1.8,0.1-3.7,0.2-5.5,0.3c-0.1,0-0.2,0-0.3,0c1-0.7,1.9-1.5,2.8-2.3
		c2.5-2.3,4.8-4.9,6.7-7.7c4-5.7,6.7-12.4,8.1-19.2c3.1-15.4-0.6-31.2-6.9-45.2c-5.9-13.1-14.2-27.5-27-35
		c-12.1-7.1-26.5-5.3-38.1,2c-6.9,4.3-12.6,10.3-17,17.2c-2,3.2-3.8,6.5-5.4,9.9c0.4-2.5,0.8-5,1.1-7.5c0.9-7.5,1.3-15.1,0.8-22.7
		c-0.9-12.9-4.5-25.5-12.4-35.9c-12.8-16.9-36.5-28.4-56.8-17.3c-5.7,3.1-10.4,7.8-14.2,13c-2,2.7-3.7,5.5-5.2,8.5
		c-0.1,0.1-0.1,0.3-0.2,0.4c0.2-2,0.3-4.1,0.4-6.1c0.2-5.7-0.1-11.3-0.8-17c-1.4-10.6-4.3-20.9-8.8-30.6c-2-4.4-4.2-9.2-7.8-12.6
		c-3.5-3.4-8.1-4.3-12.8-3.9c-9.2,0.9-18.3,5-25.6,10.5c-4.1,3.1-7.8,6.7-10.9,10.7c-1.5,1.9-2.8,3.8-4,5.9
		c-0.3,0.5-0.6,1.1-0.9,1.7c-0.1-1.2-0.2-2.4-0.3-3.6c-0.4-3.4-0.9-6.7-1.7-10c-1.4-6.1-3.4-12-6-17.7
		c-5.3-11.8-13.2-22.6-22.7-31.4c-18.5-17-49.8-31.3-73.1-15.5c-5.9,4-10.7,9.3-15,14.9c-2.3,3.1-4.4,6.3-6.4,9.6
		c-0.9,1.5-1.8,3-2.6,4.6c-0.1,0.1-0.2,0.3-0.2,0.5c0-0.5-0.1-1.1-0.1-1.6c-0.2-2.3-0.5-4.6-1-6.8c-1-4.6-2.6-9.1-4.7-13.3
		c-4.4-8.8-10.9-16.5-18.7-22.5C35.4,2,17.1-2.6,0,1.4v4.1C15.6,1.6,32.6,5.3,46,15z"/>
	<g>
		<path class="st1" d="M589,514.2c-1.8-14.8-7.9-29.9-20.4-37.9c-12.7-8.2-32.8-5.5-39.4,8.1c-4-17.4-14.5-35-31.6-40.3
			c-13.3-4.1-29.6,3.5-34.8,15.4c0.9-11.1-0.2-22.3-4.4-32.5c-5.6-13.6-17.7-25.2-32.2-27.4c-14.6-2.3-30.9,6.6-34.5,20.9
			c4.4-14.8,5.1-31.1-0.6-45.5c-5.7-14.4-18.6-26.3-33.9-28.4c-12.4-1.7-25.7,4.1-32.5,14.3c6.6-19.5-0.6-43.5-17.8-55.1
			c-19.7-13.3-49.3-8.5-63.8,10.2c4.7-22.3-4.8-48.5-25.7-57.8c-20.9-9.3-50,5.8-50.1,28.7c1.4-22.4-14.5-44.7-36.2-50.5
			c-21.7-5.8-46.7,5.8-56.2,26.1c2.9-29.1-26.1-56.9-55-52.7c-7,1-13.8,3.8-19.9,7.8v296.8H589z"/>
	</g>
	<g>
		<path class="st2" d="M400.1,514.2c-1.2-10-5.4-20.3-13.8-25.8c-8.7-5.6-22.3-3.8-26.8,5.5c-2.7-11.8-9.8-23.8-21.5-27.4
			c-9-2.8-20.1,2.4-23.7,10.4c0.6-7.5-0.1-15.1-3-22.1c-3.8-9.3-12-17.1-21.9-18.6c-9.9-1.5-21,4.5-23.4,14.2
			c3-10.1,3.5-21.1-0.4-30.9c-3.9-9.8-12.6-17.9-23-19.3c-8.4-1.2-17.5,2.8-22.1,9.7c4.5-13.2-0.4-29.5-12.1-37.4
			c-13.3-9-33.5-5.8-43.3,7c3.2-15.2-3.3-33-17.5-39.3c-14.2-6.3-34,4-34,19.5c1-15.2-9.8-30.4-24.6-34.3
			c-14.7-3.9-31.7,3.9-38.2,17.7c2-19.8-17.7-38.6-37.4-35.8c-4.8,0.7-9.4,2.6-13.5,5.3v201.6H400.1z"/>
	</g>
</g>
</svg>
