<?xml version="1.0" encoding="utf-8"?>
<!-- Generator: Adobe Illustrator 27.9.4, SVG Export Plug-In . SVG Version: 9.03 Build 54784)  -->
<svg version="1.1" id="Calque_1" xmlns="http://www.w3.org/2000/svg" xmlns:xlink="http://www.w3.org/1999/xlink" x="0px" y="0px"
	 viewBox="0 0 686.9 514.2" style="enable-background:new 0 0 686.9 514.2;" xml:space="preserve">
<style type="text/css">
	.st0{fill:#92B227;}
	.st1{fill:#799114;}
	.st2{fill:#50621B;}
</style>
<g>
	<path class="st0" d="M2,514.2c5.5-17.3,15.8-33,30.6-43.2c16.5-11.4,38.9-14.8,57.5-7.9c0.5,0.2,0.9-0.4,0.5-0.8
		c-11.1-11.3-14.1-31-6.7-45.8c9.5-19,31.2-29.3,52.4-31c16.7-1.3,33.3,1.9,49.7,6c0.6,0.1,0.9-0.7,0.4-0.9
		c-14-7.9-23.2-24.7-22.5-41.1c0.9-21,15.4-39.9,34-49.6c17.6-9.2,38.3-11,58-8.5c0.6,0.1,0.8-0.7,0.3-1
		c-13.7-7.2-21.9-23-22.8-38.6c-1-16.7,5.1-33.2,13.5-47.7c6.6-11.5,15.5-22.8,28.3-26.3c14.8-4,30.8,4.1,40.5,15.9
		c7,8.6,11.5,18.9,15.1,29.6c0.2,0.6,1.1,0.4,1-0.3c-4.8-21.5-7.9-43.8-0.9-64.4c8.3-24.6,37.1-44.1,60.5-32.9
		c12.4,5.9,19.6,18,24.8,31c0.2,0.6,1.1,0.3,1-0.3c-4.3-23.1-0.6-47.7,10.6-68.3c1.8-3.3,4-6.6,7.3-8.4c3.5-1.8,7.6-1.5,11.5-0.8
		c17.4,3.4,32.7,16.1,39.3,32.5c0.2,0.5,1,0.4,1-0.2c-0.1-37.8,26.3-74.5,62.4-86c8.1-2.6,16.8-4,25.1-2.3c19,4,30.7,22.4,39.9,39.8
		c0.3,0.5,1,0.3,1-0.3C612.8,31,642.7,1.1,674.7,1.9c4.4,0.1,8.5,0.7,12.3,1.6v510.7H2z"/>
	<path d="M640.9,15c-8.4,6.1-15.3,14.4-19.5,23.9c-2.1,4.7-3.6,9.8-4.2,14.9c-0.3,2.3-0.4,4.6-0.3,6.9c0,1.6,0.4,3.6-1.5,4.3
		c-1.2,0.5-2.3-0.1-3-1.1c-1.6-2.1-2.7-5-4-7.3c-2.6-4.6-5.4-9-8.6-13.2c-6.5-8.5-14.9-15.9-25.6-18.2c-12.2-2.7-25.4,1.5-36.3,6.9
		c-9.2,4.6-17.5,11-24.5,18.5c-14.3,15.2-23.6,35.4-24.7,56.3c-0.1,1.9,0.3,9.2-3.9,6.6c-1.6-1-2.1-3.8-3-5.5
		c-1.2-2.3-2.5-4.4-4-6.5c-6.4-8.8-15.7-15.6-26-19c-5.6-1.8-13.1-3.8-18,0.5c-4.3,3.8-6.9,10.4-9,15.6c-4.8,11.6-7.4,24.2-7.6,36.7
		c-0.1,6.3,0.3,12.6,1.3,18.8c0.3,1.5,0.8,3.4-0.7,4.5c-1.2,0.8-2.6,0.3-3.4-0.7c-1.5-1.8-2.1-4.9-3.2-7.1c-1.2-2.5-2.6-5-4.1-7.4
		c-2.9-4.6-6.4-8.9-10.8-12.2c-17.4-13.1-39.9-4.7-53.2,10.1c-17.2,19.3-16.3,47-11.8,70.9c0.6,3,1.2,6.1,1.8,9.1
		c0.3,1.6,0.7,3.5-1.2,4.2c-1.2,0.5-2.4-0.1-3.1-1.1c-1.5-2.3-2.1-5.8-3.1-8.3c-4.5-11.2-10.8-22.2-20.7-29.4
		c-9.2-6.6-21.1-10.1-32.1-6c-10.9,4-18.4,14-24,23.7c-12.1,20.7-20.1,47.3-7.1,69.5c2.9,4.9,6.7,9.3,11.3,12.6
		c1.5,1.1,8.2,4.3,3.8,6.7c-1.7,0.9-4.8-0.1-6.7-0.3c-3.2-0.3-6.5-0.4-9.8-0.5c-6.3,0-12.6,0.4-18.9,1.6
		c-22.6,4.1-44,17.8-52.6,39.9c-4,10.4-4.5,21.7-0.7,32.2c1.9,5.3,4.8,10.2,8.5,14.4c1.8,2.1,3.8,4,6.1,5.7c1.5,1.1,4.2,2.1,5.1,3.7
		c0.6,1.1,0.4,2.6-0.7,3.3c-1.9,1.2-5.4-0.5-7.3-1c-6.9-1.6-13.9-3.1-20.9-3.9c-12.2-1.5-24.8-1.5-36.7,1.7
		c-20.4,5.5-40.3,21-40.7,43.8c-0.1,5.2,0.8,10.4,2.6,15.3c0.9,2.5,2.1,4.8,3.6,7c1.2,1.9,3.7,3.7,4.4,5.8c0.4,1.1,0.1,2.4-1,3
		c-1.8,1-4.4-0.6-6.2-1.1c-5.5-1.6-11.3-2.2-17-2.1c-23.7,0.5-44.2,14.4-56.1,34.4c-3.4,5.8-6.1,11.9-8.2,18.3H0
		c5.2-16.7,14.8-32.2,28.8-42.9c8.6-6.6,18.9-11,29.6-12.8c5.3-0.9,10.7-1.2,16.1-0.8c2.6,0.2,5.1,0.5,7.6,1.1
		c1.3,0.3,2.6,0.6,3.8,0.9c-0.3-0.5-0.7-0.9-1-1.4c-1.4-2.1-2.6-4.4-3.6-6.8c-1.9-4.6-3-9.5-3.3-14.5c-0.7-10.1,2.3-20,8.2-28.1
		c12.3-17,33.7-25,54.2-25.7c7.4-0.3,14.8,0.3,22.1,1.3c4,0.6,8.1,1.3,12.1,2.2c1.5,0.3,3,0.7,4.5,1c-2.1-1.8-4.1-3.7-5.8-5.9
		c-3.5-4.2-6.2-8.9-8.2-14c-4-10.4-4.1-21.8-0.7-32.3c7-21.9,26.4-37.5,48.1-43.6c6.8-1.9,13.8-3,20.8-3.4c3.7-0.2,7.3-0.2,11-0.1
		c1.8,0.1,3.7,0.2,5.5,0.3c0.1,0,0.2,0,0.3,0c-1-0.7-1.9-1.5-2.8-2.3c-2.5-2.3-4.8-4.9-6.7-7.7c-4-5.7-6.7-12.4-8.1-19.2
		c-3.1-15.4,0.6-31.2,6.9-45.2c5.9-13.1,14.2-27.5,27-35c12.1-7.1,26.5-5.3,38.1,2c6.9,4.3,12.6,10.3,17,17.2c2,3.2,3.8,6.5,5.4,9.9
		c-0.4-2.5-0.8-5-1.1-7.5c-0.9-7.5-1.3-15.1-0.8-22.7c0.9-12.9,4.5-25.5,12.4-35.9c12.8-16.9,36.5-28.4,56.8-17.3
		c5.7,3.1,10.4,7.8,14.2,13c2,2.7,3.7,5.5,5.2,8.5c0.1,0.1,0.1,0.3,0.2,0.4c-0.2-2-0.3-4.1-0.4-6.1c-0.2-5.7,0.1-11.3,0.8-17
		c1.4-10.6,4.3-20.9,8.8-30.6c2-4.4,4.2-9.2,7.8-12.6c3.5-3.4,8.1-4.3,12.8-3.9c9.2,0.9,18.3,5,25.6,10.5c4.1,3.1,7.8,6.7,10.9,10.7
		c1.5,1.9,2.8,3.8,4,5.9c0.3,0.5,0.6,1.1,0.9,1.7c0.1-1.2,0.2-2.4,0.3-3.6c0.4-3.4,0.9-6.7,1.7-10c1.4-6.1,3.4-12,6-17.7
		c5.3-11.8,13.2-22.6,22.7-31.4c18.5-17,49.8-31.3,73.1-15.5c5.9,4,10.7,9.3,15,14.9c2.3,3.1,4.4,6.3,6.4,9.6c0.9,1.5,1.8,3,2.6,4.6
		c0.1,0.1,0.2,0.3,0.2,0.5c0-0.5,0.1-1.1,0.1-1.6c0.2-2.3,0.5-4.6,1-6.8c1-4.6,2.6-9.1,4.7-13.3c4.4-8.8,10.9-16.5,18.7-22.5
		c14-10.7,32.3-15.3,49.4-11.2v4.1C671.3,1.6,654.3,5.3,640.9,15z"/>
	<g>
		<path class="st1" d="M97.9,514.2c1.8-14.8,7.9-29.9,20.4-37.9c12.7-8.2,32.8-5.5,39.4,8.1c4-17.4,14.5-35,31.6-40.3
			c13.3-4.1,29.6,3.5,34.8,15.4c-0.9-11.1,0.2-22.3,4.4-32.5c5.6-13.6,17.7-25.2,32.2-27.4c14.6-2.3,30.9,6.6,34.5,20.9
			c-4.4-14.8-5.1-31.1,0.6-45.5c5.7-14.4,18.6-26.3,33.9-28.4c12.4-1.7,25.7,4.1,32.5,14.3c-6.6-19.5,0.6-43.5,17.8-55.1
			c19.7-13.3,49.3-8.5,63.8,10.2c-4.7-22.3,4.8-48.5,25.7-57.8c20.9-9.3,50,5.8,50.1,28.7c-1.4-22.4,14.5-44.7,36.2-50.5
			c21.7-5.8,46.7,5.8,56.2,26.1c-2.9-29.1,26.1-56.9,55-52.7c7,1,13.8,3.8,19.9,7.8v296.8H97.9z"/>
	</g>
	<g>
		<path class="st2" d="M286.8,514.2c1.2-10,5.4-20.3,13.8-25.8c8.7-5.6,22.3-3.8,26.8,5.5c2.7-11.8,9.8-23.8,21.5-27.4
			c9-2.8,20.1,2.4,23.7,10.4c-0.6-7.5,0.1-15.1,3-22.1c3.8-9.3,12-17.1,21.9-18.6c9.9-1.5,21,4.5,23.4,14.2
			c-3-10.1-3.5-21.1,0.4-30.9c3.9-9.8,12.6-17.9,23-19.3c8.4-1.2,17.5,2.8,22.1,9.7c-4.5-13.2,0.4-29.5,12.1-37.4
			c13.3-9,33.5-5.8,43.3,7c-3.2-15.2,3.3-33,17.5-39.3c14.2-6.3,34,4,34,19.5c-1-15.2,9.8-30.4,24.6-34.3
			c14.7-3.9,31.7,3.9,38.2,17.7c-2-19.8,17.7-38.6,37.4-35.8c4.8,0.7,9.4,2.6,13.5,5.3v201.6H286.8z"/>
	</g>
</g>
</svg>
