<?xml version="1.0" encoding="utf-8"?>
<!-- Generator: Adobe Illustrator 27.9.4, SVG Export Plug-In . SVG Version: 9.03 Build 54784)  -->
<svg version="1.1" id="Calque_1" xmlns="http://www.w3.org/2000/svg" xmlns:xlink="http://www.w3.org/1999/xlink" x="0px" y="0px"
	 viewBox="0 0 1467.3 389.2" style="enable-background:new 0 0 1467.3 389.2;" xml:space="preserve">
<style type="text/css">
	.st0{fill:#83B739;}
	.st1{fill:#699622;}
</style>
<g>
	<g>
		<path class="st0" d="M126.6,54.1C126.6,54.1,126.6,54.1,126.6,54.1c14.7-5.2,29.6-13.8,44.8-10.7c16.4,3.3,29.6,19.6,46.3,19.5
			c24.7-0.1,36.2-33.2,41.2-59.9c9.8,15.5,20.2,31.7,35.8,39.6s37.5,3.5,44.2-13.9c-0.4,22.1,27.5,30.5,46.5,23.5s36.6-22,56.5-20.2
			c14.2,1.3,26.4,11,39.3,17.5c28.7,14.4,63.5,12.7,91-4.5c5.6-3.5,11.7-7.7,17.9-6.1c6.2,1.6,9.9,8.3,14.4,13.2
			c14.3,15.6,41.5,12,52-6.9c6.5,24.4,34.5,38.3,55.3,27.6c11.4-5.9,23.8-18,34.6-10.8c4.1,2.7,6.5,7.7,9.6,11.7
			c12,15.6,34.2,16.2,51.7,9.3c17.5-6.9,32.7-19.7,49.9-27.4c5.1-2.3,10.8-4.2,16.2-2.5c8.6,2.6,13.1,13,20.2,19.1
			c15,12.7,36.8,3.2,51.9-9.4c15.1-12.6,30-28.8,48.9-29.2c16.7-0.4,32.4,12.1,49,10.2c12.3-1.4,24-10.7,36.1-8
			c7.8,1.7,14,8.2,20.4,13.5c23.4,19.8,54.8,27.7,83.7,21c14.3-3.3,29.6-10,43-3.6c7.5,3.6,13.1,10.8,20.5,14.6
			c15.2,8,32.9,0.1,49.6-2.6c29.3-4.7,60.5,8.8,79.1,34.3c3.7,5.1,7.4,11,13.2,12.6c4.6,1.3,9.3-0.4,13.9-1.4
			c27.2-5.8,56.4,19.4,57.9,50.1c-8.3-4.3-12,12.8-6.7,21.1c5.3,8.3,13.6,18.4,8.5,26.9c-1.8,3-4.8,4.7-7.3,6.9
			c-14.4,13.1-6.4,38.5,1.3,57.3c7.8,18.8,10.9,47.2-6.6,54.5c-3.1-20.8-31.3-20.3-47.3-9.1c-16.1,11.2-32.8,28.4-51.1,22.8
			c-20.8-6.4-31.3-40.2-52.8-38c-10.7,1.1-18.6,11.1-27.9,17c-27.1,17.1-63.7-2.2-91.5,13.5c-6.9,3.9-13.1,9.9-20.7,11.4
			c-14.2,2.9-26.9-10.5-41.2-13.1c-29-5.2-53.6,34.5-82.3,27.8c-20.2-4.7-33-31.1-53.7-32.2c-19.6-1.1-34.6,21.6-54.2,23.7
			c-21.8,2.3-38.9-21.1-60.4-25.8c-29.6-6.5-55.2,23.2-84.6,30.6c-20.6,5.2-41.9-0.7-62.9-2.8c-21-2.1-44.9,1.1-58.1,19.2
			c-8.7-9-17.4-17.9-26.2-26.9c-3,16.4-26,22.4-35.3,9.2c-3.6-5.1-5.4-12.2-10.6-15.3c-10.4-6.2-20.2,8.8-30.8,14.6
			c-15.3,8.5-33-3.1-47.8-12.7c-14.8-9.5-36.3-16.1-47-1.3c-3.1,4.3-4.9,10.1-9.1,13.1c-6.2,4.4-14.4,0.8-20.8-3.3
			c-27.8-17.7-60.1-43.4-88.5-26.9c-15,8.7-25.8,28.3-42.7,28.4c-26.5,0.2-42.1-47.9-67.3-38.9c-6.8,2.5-11.9,8.9-18.7,11.6
			c-16.6,6.5-32-11.8-48.7-17.9c-28.6-10.4-57.8,16-88,16c3-17.1,6-34.2,9-51.4c-6.6,7.5-18.4,3.4-25.4-3.8
			c-6.9-7.1-12-16.8-20.4-21.7c-13.4-7.8-34.8-3.9-39.5-19.8c-6.9-23.5,35-26.8,42.9-49.9c-13.4-0.1-25.7-13.1-26.4-27.9
			c7.1-1.2,13.5-6.5,16.6-13.7c0.9-2-13.1-20.9-11.8-28.2c3.1-17.3,11-7.9,22.1-12.6c20.2-8.6,24.9-41.2,36.8-60
			C95.3,59.5,111.9,59.3,126.6,54.1z"/>
		<g>
			<path d="M127.4,57.1c18.7-6.7,35.7-16.5,55.1-6.1c12.3,6.6,24.3,16.8,39.3,14.6c26.8-3.9,35.8-39.9,40-61.9
				c-1.9,0.2-3.8,0.5-5.7,0.7c10.6,16.8,23.2,37.4,43.5,43.3c16.2,4.8,35-1.5,41.8-17.6c-1.9-0.5-3.9-1-5.8-1.6
				c0.3,20,20,30,38.1,28.9c27.1-1.6,47.9-30,76.3-20.7c13.8,4.5,25.3,14.2,38.9,19.3c12.4,4.7,25.9,6.6,39.2,5.8
				c13.2-0.8,26.2-4.3,38-10.3c6.4-3.2,15.3-11.6,22.9-9.9c6.5,1.5,10.3,10.1,14.9,14.3c16.8,15.3,43.7,9.4,54.9-9.4
				c-1.9-0.2-3.8-0.5-5.7-0.7c6.5,22.3,30.9,39.4,54.2,31.8c6.3-2,11.7-6,17.3-9.4c3.4-2.1,7-4.3,11-5.2c6.6-1.4,10.6,2.5,14.1,7.5
				c7.5,10.6,16.4,17.5,29.6,19.2c14.3,1.8,28.1-2.8,40.6-9.4c7.3-3.9,14.3-8.4,21.3-12.7c7.7-4.7,18-12.1,27.4-12.1
				c8.3,0,13,8,17.7,13.6c4.2,5,9.2,9.1,15.6,11c13.7,3.9,28.5-2.7,39.5-10.5c13-9.2,23.4-22,37.9-29.1c17.1-8.4,31.8,0.5,48.5,4.8
				c6.1,1.6,12.3,2.2,18.5,1c9-1.7,17.1-7.1,26.2-7.9c9.7-0.9,16.4,5.7,23.2,11.5c6.1,5.2,12.6,10,19.7,13.8c13,6.9,27.3,11,42,11.8
				c16.3,0.9,30.5-4.2,46.2-7.3c10.6-2.1,19.6-1.1,28.2,5.6c6,4.7,11.4,10,18.9,12.4c16.6,5.3,33.5-3.3,50-5
				c17.2-1.8,34.7,2.8,49.2,12c7.5,4.7,14.3,10.7,20,17.5c4.7,5.7,8.5,13.4,15.4,16.8c7.5,3.7,15.2-0.5,22.9-1
				c7.6-0.5,15.2,1.5,21.9,5.1c15.7,8.5,26.1,24.9,27.3,42.7c1.3-1,2.6-2,3.9-3c-13.1-5.2-14.6,16-11.2,23.6
				c3.9,8.9,16.9,19.6,6.6,28.9c-6.1,5.5-10.6,10.3-12.2,18.6c-3.2,17.5,5.2,33.9,10.7,49.9c4.6,13.7,9.5,38.3-7.1,46
				c1.5,0.6,3,1.2,4.6,1.9c-4.8-25.7-37.8-21-53.7-9.6c-13,9.3-29.3,26.5-46.9,21.1c-12.1-3.7-19.9-16.4-28.2-25.2
				c-6.9-7.4-15.6-14.2-26.3-12.9c-15.5,1.9-24.9,17.9-39.7,22.2c-16,4.6-33.1,1.3-49.5,1.5c-7.4,0.1-15.1,0.8-22.2,3.2
				c-7.8,2.6-13.8,7.6-20.8,11.7c-17.2,9.9-30.9-6.8-47.4-9.8c-11.9-2.2-23.3,2.7-33.4,8.5c-11.5,6.6-22.5,15.8-35.7,19
				c-15.5,3.8-26.9-6.2-37.8-15.8c-9-7.9-19.1-16.6-31.8-16.3c-13.9,0.3-24.8,10.4-36,17.2c-6.7,4.1-14,7.4-22.1,6.5
				c-8-0.8-15.3-5.1-22-9.3c-12-7.5-23.9-16.4-38.5-17.3c-16.5-1-31.7,7.7-45.5,15.6c-17.6,10.1-33.9,18.6-54.8,17.9
				c-20.8-0.7-41.1-7.2-62-4.9c-15.9,1.7-30.2,8-40.1,20.8c1.6-0.2,3.2-0.4,4.9-0.6c-8.7-9-17.4-17.9-26.2-26.9
				c-1.6-1.6-4.7-0.9-5.2,1.4c-2.2,9.6-12,16.2-21.7,13.7c-10.3-2.6-10.6-14.8-18.1-20.6c-7.1-5.5-15-2-21.3,2.8
				c-4.4,3.3-8.4,7.5-13.2,10.3c-7.1,4.2-15,3.4-22.5,0.6c-19.5-7.2-36.7-27.5-59.6-22.6c-10.2,2.2-14.1,9.4-19.3,17.5
				c-8.8,13.8-27.7-3.7-36.9-9.7c-18.1-11.8-40.2-25.9-62.9-21.4c-10.3,2-18.4,8.2-26,15.2c-7.9,7.3-16.4,17.5-28,17.7
				c-16.2,0.3-28-18.6-38.5-28.5c-12-11.3-24.7-15.4-38.8-4.9c-5.8,4.3-11.5,8.5-19.2,7.2c-6.5-1.1-12.3-4.8-17.8-8.2
				c-10.3-6.4-20.3-12.6-32.7-13.2c-26.6-1.2-49.2,17.9-75.6,18.4c1,1.3,2,2.6,3,3.9c3-17.1,6-34.2,9-51.4c0.5-2.9-2.8-5.3-5.2-3
				c-14.6,14.1-31.5-19.8-42-25.9c-10.7-6.3-32.2-3.8-37.6-16.8C2,226.9,17.1,219.4,25.8,214c9.8-6.1,19.6-12.6,23.9-23.8
				c0.8-2-1.2-3.8-3-3.9c-13-0.7-22.2-12.3-23.3-24.8c-0.8,1-1.5,2-2.3,3c7.5-1.7,13.9-6.4,17.5-13.2c2.2-4,0.8-6.3-1.2-10.1
				c-3.1-5.7-7.7-11.7-9-18.1c-0.6-3-0.2-8.1,2.3-10.3c2-1.7,4.9-1.1,7.4-1.1c30.8-0.3,35.9-42.7,48.4-63.1
				c-1.6,0.2-3.2,0.4-4.9,0.6C94.1,61.9,111.3,62.6,127.4,57.1c3.8-1.3,2.1-7.3-1.7-6c-14,4.7-28.7,4.9-39.6-6.4
				c-1.4-1.5-3.9-1-4.9,0.6C73.4,58.1,69.7,72.8,62.7,86c-3.4,6.5-7.7,13.1-14.2,16.8c-5.5,3.1-10.4,1.7-16.2,2.7
				c-10.5,1.8-11.7,14.9-8.4,23c2.1,5.3,5.1,10.1,7.9,15.1c1.5,2.8,1.9,2.9,1,5.3c-1.9,5.1-8.4,8.4-13.3,9.5c-1.2,0.3-2.4,1.7-2.3,3
				c1.4,15.9,12.9,30,29.5,31c-1-1.3-2-2.6-3-3.9c-5.4,14.2-22.2,19.6-33.3,28.3c-9.7,7.6-14.9,20.6-5.3,30.9
				c5,5.4,12.5,7.1,19.4,8.7c9.9,2.2,18.2,4.4,25.3,12.4c6.4,7.3,11.4,16.2,20.5,20.4c7.2,3.4,15,3.2,21-2.5c-1.7-1-3.5-2-5.2-3
				c-3,17.1-6,34.2-9,51.4c-0.3,1.9,0.8,4,3,3.9c24.6-0.4,45.3-16.1,69.5-18.2c13-1.1,23.2,4.3,33.9,11c8.5,5.3,18,11.5,28.5,10.3
				c11.2-1.2,17.6-13.1,28.6-13.9c8.1-0.6,14.9,5.5,20.3,10.7c10.8,10.4,21.1,25.7,36.8,28.8c21.4,4.1,33.2-19.2,49.2-28.3
				c24.4-14,52.3,5.3,72.5,18.5c8.8,5.7,20,15.9,31.3,13.9c11.4-2,11.8-15.6,20.7-21c10.5-6.3,24.7-0.6,34.3,4.9
				c10.5,6,20.3,13.9,32.3,16.9c12.7,3.2,22.1-1.3,31.6-9.3c5.1-4.3,12.3-11.6,19.1-6.6c4.8,3.5,6,10.8,9.9,15.2
				c12.4,14,35.7,5.1,39.5-11.8c-1.7,0.5-3.5,0.9-5.2,1.4c8.7,9,17.4,17.9,26.2,26.9c1.5,1.6,3.7,0.9,4.9-0.6
				c23.6-30.6,66.4-13.5,98-12.8c16.5,0.3,30.9-4.6,45.3-12.4c13.2-7.2,26.1-16.4,40.9-19.9c16.4-4,29.5,3.2,42.9,11.9
				c10.8,7,22.8,14.8,36.3,13.5c13.3-1.3,23.6-10.6,34.5-17.2c5.9-3.6,12.5-6.9,19.7-6.4c7.6,0.5,14.1,4.9,19.8,9.6
				c9.4,7.7,17.9,17.4,29.7,21.6c10.8,3.8,21.9,1.1,31.9-3.9c11.9-5.9,22.2-14.5,34.4-19.7c6.1-2.6,12.7-4.2,19.4-3.1
				c7.8,1.3,14.7,5.9,21.8,9.2c5.7,2.6,11.8,4.9,18.2,4.3c7.8-0.7,13.9-5.5,20.2-9.6c14.5-9.4,30.7-9.1,47.4-8.3
				c14.2,0.6,29.1,1.4,42.4-4.6c12.2-5.4,23.8-23.3,38.6-19.1c12.7,3.6,20.6,18.4,29.6,27.1c9.4,9.1,21,14.1,34.1,9.9
				c16.7-5.3,27.5-20.7,43.5-27c12.6-5,31.6-4.8,34.6,11.6c0.4,2.1,2.9,2.6,4.6,1.9c12.5-5.9,15.2-20.3,14.1-32.9
				c-1.4-16.6-9.6-30.8-13.4-46.8c-2-8.6-3.4-18.7,0.8-26.8c3.6-7,12.4-9.7,14-17.8c1.6-8-3.7-15.5-7.8-21.9
				c-2.3-3.6-4.2-6.8-4.4-11.2c-0.1-2.9,0.5-10.9,5.2-9.1c1.8,0.7,4.1-1.1,3.9-3c-1.8-25.5-20.9-50.1-47.1-53.6
				c-5.8-0.8-11.3-0.1-17,1c-6.1,1.2-10.4,2.1-15.2-2.6c-3-3-5.3-6.8-7.9-10.2c-8.9-11.5-20.6-20.7-33.8-26.7
				c-12.4-5.6-26.2-8.4-39.8-7.4c-17.4,1.3-37.5,12.3-54.3,3.7c-6.8-3.5-11.8-9.8-18.5-13.6c-6.8-3.9-14.6-4.7-22.3-3.8
				c-16.8,2.1-31.8,8.9-49.1,8.1c-17.1-0.8-33.7-6.4-48-15.8c-11.6-7.7-21.7-22-37-21.4c-7,0.3-13.4,3.2-19.9,5.5
				c-9.6,3.4-17.8,3.6-27.6,0.7c-14.5-4.3-28-11-43.3-6c-14.2,4.7-25.2,15.7-36.3,25.2c-12.1,10.4-31.8,23.9-48,14.4
				c-11.6-6.7-15.5-23.6-31.2-22.5c-15,1-29.7,13.3-42.1,20.7c-15.5,9.3-33.6,17.9-52,12.1c-9.7-3-14.4-9.7-20.2-17.4
				c-4.1-5.4-9.5-8.8-16.5-8.1c-15.7,1.6-25.5,17.3-42.2,16.5c-16.7-0.8-30.8-13.2-35.4-28.9c-0.7-2.6-4.3-3.1-5.7-0.7
				c-5.5,9.3-15.3,15.1-26.2,15.2c-12.1,0.1-18.8-6.7-26.2-15.2c-6.9-8-14.8-10.1-24.3-5.2c-12.3,6.3-22.9,13.1-36.7,15.9
				c-13.3,2.7-27.4,2.3-40.5-1.1c-13.3-3.4-24.3-10.8-36.3-17.1c-9.9-5.2-20.3-8.5-31.6-6.8c-11.9,1.8-22.5,8-33.1,13.4
				c-11.3,5.8-22.3,10.7-35.2,8.2c-11.5-2.2-21.5-9.6-21.7-22.1c0-2.8-4.5-4.6-5.8-1.6c-6.4,15.1-24.2,19.7-38.6,13.4
				c-16.5-7.3-26.7-24.4-35.9-39.1c-1.3-2.1-5.1-2-5.7,0.7c-4.1,21.4-15,65-45.4,56.6c-13.8-3.8-24-15.5-38.2-18.3
				c-16.4-3.3-31.5,5.4-46.4,10.7C122,52.5,123.6,58.5,127.4,57.1z"/>
		</g>
	</g>
	<g>
		<path class="st1" d="M176.4,92.4C176.4,92.4,176.4,92.4,176.4,92.4c13.5-3.8,27.1-10,41.1-7.8c15.1,2.4,27.2,14.3,42.5,14.2
			c22.6-0.1,33.2-24.2,37.8-43.6c9,11.3,18.6,23.1,32.8,28.8c14.3,5.7,34.4,2.5,40.5-10.1C370.8,90,396.4,96.1,413.8,91
			s33.6-16,51.8-14.7c13,0.9,24.2,8,36.1,12.7c26.3,10.5,58.3,9.2,83.5-3.2c5.1-2.5,10.7-5.6,16.4-4.4c5.7,1.2,9.1,6,13.2,9.6
			c13.1,11.3,38.1,8.7,47.7-5c6,17.7,31.7,27.9,50.8,20c10.5-4.3,21.8-13.1,31.7-7.8c3.8,2,5.9,5.6,8.8,8.5
			c11.1,11.4,31.4,11.8,47.4,6.8c16.1-5,30-14.3,45.8-19.9c4.7-1.7,9.9-3,14.8-1.8c7.9,1.9,12,9.5,18.6,13.9
			c13.8,9.2,33.8,2.3,47.6-6.8s27.5-20.9,44.9-21.3c15.4-0.3,29.7,8.8,45,7.4c11.3-1,22-7.8,33.1-5.8c7.2,1.3,12.9,5.9,18.7,9.8
			c21.5,14.4,50.3,20.1,76.8,15.2c13.2-2.4,27.1-7.3,39.5-2.6c6.9,2.6,12,7.8,18.8,10.7c14,5.8,30.2,0.1,45.5-1.9
			c26.9-3.4,55.5,6.4,72.6,24.9c3.4,3.7,6.8,8,12.1,9.2c4.2,1,8.5-0.3,12.8-1c25-4.2,51.8,14.1,53.1,36.4c-7.7-3.1-11,9.3-6.2,15.4
			c4.8,6.1,12.5,13.4,7.8,19.5c-1.6,2.2-4.4,3.4-6.7,5c-13.3,9.5-5.9,28,1.2,41.7s10,34.3-6.1,39.7c-2.8-15.1-28.7-14.8-43.4-6.6
			c-14.8,8.2-30.1,20.7-46.9,16.6c-19.1-4.7-28.7-29.2-48.5-27.7c-9.8,0.8-17,8.1-25.6,12.4c-24.9,12.4-58.5-1.6-84,9.8
			c-6.3,2.8-12,7.2-19,8.3c-13.1,2.1-24.7-7.6-37.8-9.5c-26.6-3.8-49.2,25.1-75.5,20.2c-18.6-3.4-30.3-22.6-49.3-23.5
			c-18-0.8-31.7,15.7-49.7,17.2c-20,1.7-35.7-15.3-55.4-18.8c-27.2-4.7-50.7,16.8-77.7,22.3c-18.9,3.8-38.4-0.5-57.7-2.1
			c-19.3-1.5-41.2,0.8-53.4,14c-8-6.5-16-13-24-19.5c-2.8,12-23.8,16.3-32.4,6.7c-3.3-3.7-5-8.9-9.7-11.1
			c-9.5-4.5-18.6,6.4-28.2,10.6c-14.1,6.2-30.3-2.3-43.9-9.2s-33.3-11.7-43.1-0.9c-2.9,3.1-4.5,7.3-8.3,9.5
			c-5.7,3.2-13.2,0.6-19.1-2.4c-25.5-12.9-55.1-31.6-81.3-19.6c-13.8,6.3-23.7,20.6-39.2,20.6c-24.3,0.1-38.6-34.9-61.7-28.3
			c-6.3,1.8-11,6.5-17.2,8.4c-15.2,4.7-29.4-8.6-44.7-13c-26.3-7.6-53.1,11.7-80.7,11.6c2.8-12.5,5.5-24.9,8.3-37.4
			c-6.1,5.4-16.9,2.4-23.3-2.7c-6.4-5.2-11-12.2-18.7-15.8c-12.3-5.6-31.9-2.9-36.2-14.4c-6.3-17.1,32.1-19.5,39.4-36.3
			c-12.3-0.1-23.5-9.5-24.2-20.3c6.5-0.9,12.4-4.8,15.2-10c0.8-1.5-12.1-15.2-10.9-20.5c2.8-12.5,10.1-5.7,20.3-9.1
			c18.6-6.2,22.8-29.9,33.8-43.7C147.7,96.3,163,96.2,176.4,92.4z"/>
	</g>
</g>
</svg>
