<?xml version="1.0" encoding="utf-8"?>
<!-- Generator: Adobe Illustrator 27.9.4, SVG Export Plug-In . SVG Version: 9.03 Build 54784)  -->
<svg version="1.1" id="Calque_1" xmlns="http://www.w3.org/2000/svg" xmlns:xlink="http://www.w3.org/1999/xlink" x="0px" y="0px"
	 viewBox="0 0 1467.2 389.2" style="enable-background:new 0 0 1467.2 389.2;" xml:space="preserve">
<style type="text/css">
	.st0{fill:#83B739;}
	.st1{fill:#699622;}
</style>
<g>
	<g>
		<path class="st0" d="M1340.7,54.1C1340.7,54.1,1340.7,54.1,1340.7,54.1c-14.7-5.2-29.6-13.8-44.8-10.7
			c-16.4,3.3-29.6,19.6-46.3,19.5c-24.7-0.1-36.2-33.2-41.2-59.9c-9.8,15.5-20.2,31.7-35.8,39.6c-15.5,7.9-37.5,3.5-44.2-13.9
			c0.4,22.1-27.5,30.5-46.5,23.5s-36.6-22-56.5-20.2c-14.2,1.3-26.4,11-39.3,17.5c-28.7,14.4-63.5,12.7-91-4.5
			c-5.6-3.5-11.7-7.7-17.9-6.1c-6.2,1.6-9.9,8.3-14.4,13.2c-14.3,15.6-41.5,12-52-6.9c-6.5,24.4-34.5,38.3-55.3,27.6
			c-11.4-5.9-23.8-18-34.6-10.8c-4.1,2.7-6.5,7.7-9.6,11.7c-12,15.6-34.2,16.2-51.7,9.3c-17.5-6.9-32.7-19.7-49.9-27.4
			c-5.1-2.3-10.8-4.2-16.2-2.5c-8.6,2.6-13.1,13-20.2,19.1c-15,12.7-36.8,3.2-51.9-9.4c-15.1-12.6-30-28.8-48.9-29.2
			c-16.7-0.4-32.4,12.1-49,10.2c-12.3-1.4-24-10.7-36.1-8c-7.8,1.7-14,8.2-20.4,13.5c-23.4,19.8-54.8,27.7-83.7,21
			c-14.3-3.3-29.6-10-43-3.6c-7.5,3.6-13.1,10.8-20.5,14.6c-15.2,8-32.9,0.1-49.6-2.6c-29.3-4.7-60.5,8.8-79.1,34.3
			c-3.7,5.1-7.4,11-13.2,12.6c-4.6,1.3-9.3-0.4-13.9-1.4C37.1,118.5,8,143.8,6.5,174.4c8.3-4.3,12,12.8,6.7,21.1
			c-5.3,8.3-13.6,18.4-8.5,26.9c1.8,3,4.8,4.7,7.3,6.9c14.4,13.1,6.4,38.5-1.3,57.3c-7.8,18.8-10.9,47.2,6.6,54.5
			c3.1-20.8,31.3-20.3,47.3-9.1c16.1,11.2,32.8,28.4,51.1,22.8c20.8-6.4,31.3-40.2,52.8-38c10.7,1.1,18.6,11.1,27.9,17
			c27.1,17.1,63.7-2.2,91.5,13.5c6.9,3.9,13.1,9.9,20.7,11.4c14.2,2.9,26.9-10.5,41.2-13.1c29-5.2,53.6,34.5,82.3,27.8
			c20.2-4.7,33-31.1,53.7-32.2c19.6-1.1,34.6,21.6,54.2,23.7c21.8,2.3,38.9-21.1,60.4-25.8c29.6-6.5,55.2,23.2,84.6,30.6
			c20.6,5.2,41.9-0.7,62.9-2.8c21-2.1,44.9,1.1,58.1,19.2c8.7-9,17.4-17.9,26.2-26.9c3,16.4,26,22.4,35.3,9.2
			c3.6-5.1,5.4-12.2,10.6-15.3c10.4-6.2,20.2,8.8,30.8,14.6c15.3,8.5,33-3.1,47.8-12.7c14.8-9.5,36.3-16.1,47-1.3
			c3.1,4.3,4.9,10.1,9.1,13.1c6.2,4.4,14.4,0.8,20.8-3.3c27.8-17.7,60.1-43.4,88.5-26.9c15,8.7,25.8,28.3,42.7,28.4
			c26.5,0.2,42.1-47.9,67.3-38.9c6.8,2.5,11.9,8.9,18.7,11.6c16.6,6.5,32-11.8,48.7-17.9c28.6-10.4,57.8,16,88,16
			c-3-17.1-6-34.2-9-51.4c6.6,7.5,18.4,3.4,25.4-3.8s12-16.8,20.4-21.7c13.4-7.8,34.8-3.9,39.5-19.8c6.9-23.5-35-26.8-42.9-49.9
			c13.4-0.1,25.7-13.1,26.4-27.9c-7.1-1.2-13.5-6.5-16.6-13.7c-0.9-2,13.1-20.9,11.8-28.2c-3.1-17.3-11-7.9-22.1-12.6
			c-20.2-8.6-24.9-41.2-36.8-60C1372,59.5,1355.3,59.3,1340.7,54.1z"/>
		<g>
			<path d="M1341.5,51.2c-14.5-5.2-29.2-13.5-45.1-10.9c-14.8,2.4-25.4,14.5-39.5,18.5c-30.4,8.8-41.4-35.4-45.4-56.6
				c-0.5-2.8-4.3-2.8-5.7-0.7c-9.2,14.6-19.4,31.8-35.9,39.1c-14.4,6.3-32.3,1.7-38.6-13.4c-1.3-3-5.7-1.3-5.8,1.6
				c-0.4,24.6-31.6,25.7-48.3,18.1c-21.7-9.8-41.5-24.3-66-14.2c-12,5-22.4,13-34.5,17.6c-12.3,4.7-25.6,6.5-38.7,5.5
				c-13.7-1-27.1-5.3-39-12.2c-8.9-5.2-18.3-12-28.1-4.7c-4.5,3.4-7.2,8.5-11.3,12.4c-4.2,3.9-9.4,6.4-15,7.2
				c-12.4,1.8-24.5-4.1-30.8-14.8c-1.4-2.3-4.9-1.8-5.7,0.7c-4,13.8-15.1,24.9-29.3,28.1c-6.3,1.4-12.9,1.1-19-1.2
				c-7.8-3.1-14.2-9.1-22-12.3c-5-2.1-10.5-3.1-15.7-0.9c-6.8,2.9-9.5,9.9-14.1,15.2c-10.5,12.1-28.1,12.9-42.5,8.6
				c-16.4-5-30.2-16.2-45.1-24.3c-12.2-6.7-25.5-12.4-36.7-1.2c-5.2,5.2-8.7,12.1-15.2,15.9c-8.6,5-19,3.1-27.7-0.7
				c-15-6.6-25.8-19.4-38.7-29c-11.7-8.6-24.5-13.8-39.1-10.8c-7.6,1.5-14.7,4.7-22.1,7c-9.3,2.8-17.3,2.9-26.5-0.3
				c-14.7-5.1-26.4-9.2-39.9,1.1c-6.2,4.7-11.6,10.2-18.1,14.5c-7.5,5-15.6,8.9-24.2,11.5c-16.3,5.1-33.6,5.6-50.1,1.5
				c-14.7-3.7-30.6-9.8-45-1.6c-6.7,3.8-11.6,10.1-18.5,13.6c-9.6,4.9-20.7,2.9-30.7,0.6c-14.7-3.3-28.3-5.9-43.4-3.2
				C128.7,78.9,113.9,86.4,102,97c-6.1,5.4-10.9,11.6-15.7,18c-4.6,6.1-8.5,9-16.4,7.4c-3.7-0.7-7.3-1.7-11.1-2
				c-29.8-1.8-53.5,26-55.4,54c-0.1,1.9,2.1,3.7,3.9,3c4.7-1.9,5.3,6.2,5.2,9.1c-0.2,4.5-2,7.5-4.4,11.2c-4,6.2-9.3,13.6-7.9,21.4
				c1.4,8.2,9.8,10.7,13.6,17.5c4.7,8.3,3.3,18.8,1.2,27.6C11.3,279.8,3.2,293.8,1.7,310c-1.2,12.8,1.2,27.8,14,33.8
				c1.7,0.8,4.2,0.3,4.6-1.9c2.7-14.6,18.4-16.3,30.6-12.9c14.6,4.1,25,16.7,37.9,24c11.3,6.4,24.2,8.5,35.6,1.2
				c9.8-6.2,16.3-16.1,24.3-24.3c3.8-3.9,8.1-7.9,13.5-9.4c8.5-2.4,15.7,2.8,22,7.8c11.4,9.1,22,14.8,36.8,16
				c15.5,1.2,31-1.7,46.4,0c8.4,0.9,16,3.6,23.1,8.2c6.3,4.1,12.4,8.9,20.2,9.6c14.8,1.3,26-11.1,40-13.5
				c13.3-2.3,25.8,5.9,36.5,12.7c10.2,6.4,20.8,13.7,32.9,15.5c11.7,1.8,21.8-2.9,30.8-10.1c10.4-8.2,20.7-21.6,34.9-22.5
				c14.5-0.9,26.3,11.9,38.2,18.3c11.2,6.1,22.7,7.1,34.5,2c13.6-5.8,24.6-16.9,38.8-21.5c17.6-5.7,34.5,3.3,49.5,11.9
				c14.4,8.2,28.7,17,45.4,19.2c35.2,4.7,84.5-21.1,111.1,13.5c1.2,1.5,3.3,2.2,4.9,0.6c8.7-9,17.4-17.9,26.2-26.9
				c-1.7-0.5-3.5-0.9-5.2-1.4c3.4,15,22,24.2,35.5,15.3c7.4-4.8,10.4-22.6,20.7-20.3c5.6,1.2,10.4,6.8,14.7,10.2
				c4,3.2,8.2,6.2,13.3,7.6c24.4,6.5,43.1-19.4,65.3-23.9c5.4-1.1,11.5-1.3,16.5,1.4c6.3,3.4,8,10.1,12.1,15.4
				c6.2,8,15.5,7.1,23.8,2.8c22.8-11.7,43.3-33.7,70.6-34.1c25.4-0.4,34,26.1,56,32.6c16.6,4.9,29.7-8.2,40.1-19.1
				c5.7-6,11.4-12.8,18.7-17c9.7-5.5,16.9-1,25.1,5c25.3,18.3,43.5-12.8,68.1-15.2c27-2.6,50.8,17.7,77.7,18.2c2.2,0,3.3-2,3-3.9
				c-3-17.1-6-34.2-9-51.4c-1.7,1-3.5,2-5.2,3c5.9,5.7,13.7,5.9,21,2.5c8.8-4.1,13.7-12.5,19.8-19.6c7.3-8.5,15.5-10.9,26-13.2
				c6.9-1.5,14.4-3.3,19.4-8.7c9.3-10,4.6-22.9-4.8-30.4c-11.2-8.9-28.4-14.3-33.9-28.7c-1,1.3-2,2.6-3,3.9
				c16.6-0.9,28.1-15,29.5-31c0.1-1.3-1-2.7-2.3-3c-5.4-1.2-9.6-4-12.7-8.6c-1.9-2.7-1.5-2.7,0.1-5.6c2.8-5.2,6-10.2,8.2-15.7
				c3.3-8.1,2.2-21.3-8.4-23c-5.8-1-10.7,0.4-16.2-2.7c-6.5-3.7-10.8-10.3-14.2-16.8c-7-13.2-10.7-27.9-18.5-40.6
				c-1-1.7-3.5-2.1-4.9-0.6C1370.3,56,1355.5,55.9,1341.5,51.2c-3.8-1.3-5.4,4.7-1.7,6c16.1,5.4,33.3,4.8,45.7-8
				c-1.6-0.2-3.2-0.4-4.9-0.6c12.5,20.4,17.6,62.8,48.4,63.1c2.4,0,5.4-0.6,7.4,1.1c2.6,2.2,2.9,7.3,2.3,10.3
				c-1.2,6.1-5.7,12.2-8.7,17.6c-2.2,3.9-3.8,6.5-1.5,10.6c3.7,6.8,10,11.5,17.5,13.2c-0.8-1-1.5-2-2.3-3
				c-1.1,12.4-10.3,24-23.3,24.8c-1.8,0.1-3.7,1.9-3,3.9c4.1,11,13.6,17.5,23.2,23.4c8.8,5.5,24.6,13.1,19.2,26
				c-5.3,12.7-26.2,10.6-36.8,16.4c-7.1,3.9-11.8,10.6-16.8,16.9c-5.6,7-16.9,18.2-25.9,9.5c-2.4-2.3-5.7,0.1-5.2,3
				c3,17.1,6,34.2,9,51.4c1-1.3,2-2.6,3-3.9c-23.8-0.4-44.1-15.3-67.4-18c-10.6-1.2-20.4,0.9-29.8,6c-9.8,5.3-20.2,15.3-32,15.3
				c-11.4,0-17.9-11.7-28.7-13.7c-6.4-1.2-12.6,0.8-18,4.3c-13.4,8.8-21.5,24-35.4,31.9c-21.1,12-35.4-13.7-51-23.6
				c-19.6-12.5-42.2-5-60.8,5.4c-10.9,6-21,13.2-31.5,19.9c-6.6,4.2-15.8,9-21.4,0.7c-3-4.4-4.8-9.3-8.9-13
				c-15.6-14-38.2-1.5-52.7,7.6c-12.7,8-28.6,17.3-42.8,7.3c-7.6-5.4-16-16.4-26.6-14.1c-11.5,2.5-11,17-20.2,22
				c-10.2,5.5-22.7-1.8-25.1-12.4c-0.5-2.3-3.6-3-5.2-1.4c-8.7,9-17.4,17.9-26.2,26.9c1.6,0.2,3.2,0.4,4.9,0.6
				c-20.4-26.6-54.4-21.7-83.6-17.7c-20.8,2.9-39.2,2.1-58.1-7.7c-13.5-6.9-26-15.8-40.4-20.9c-13.3-4.6-26.5-4-39.1,2.3
				c-13.6,6.7-26,19.6-41.7,21.2c-15.7,1.6-27.9-11.4-40.6-18.4c-11.1-6.1-22.8-7.1-34.1-0.7c-11.9,6.8-20.2,18.4-32.3,24.9
				c-13.5,7.2-27,1.5-39.1-5.7c-11-6.5-21.6-14.7-34.1-18.2c-13.7-3.8-24.8,1.4-37,7.4c-9.3,4.6-17.4,6.9-27,1.4
				c-7-4-13.1-9.1-20.8-11.7c-15-5-31.2-2.9-46.7-2.5c-8.4,0.2-16.9,0.1-25-2.2c-8.8-2.5-15.2-7.9-22.2-13.4
				c-9.3-7.3-19.9-12-31.1-6.2c-12,6.2-19.1,19-28.8,27.9c-6.4,5.9-13.9,9.8-22.8,8.2c-9.3-1.6-17.4-7.8-24.8-13.3
				c-12.3-9.2-23.9-18.3-40-17.9c-12.1,0.3-22.7,6.6-25,19c1.5-0.6,3-1.2,4.6-1.9c-16.5-7.7-11.7-32.3-7.1-46
				c5.4-16,14-32.5,10.7-49.9c-1.5-7.9-5.6-12.8-11.4-18c-11.2-10,1.5-19.7,5.9-29.5c3.4-7.6,1.9-28.8-11.2-23.6c1.3,1,2.6,2,3.9,3
				c1.1-15.8,9.3-30.6,22.4-39.6c5.5-3.8,11.8-6.6,18.4-7.7c8.2-1.4,15.3,1.9,23.4,2.2c14.1,0.6,20.8-16.5,29.5-24.9
				c11.2-11,25.5-18.7,40.9-21.9c17.9-3.7,33.6,1.9,51,4.6c7,1.1,14.4,1.4,21.3-0.8c7.5-2.4,12.8-7.7,18.9-12.4
				c16.4-12.8,34.1-3,52,0.3c14.7,2.7,30,1.8,44.4-2.3c14.7-4.2,28-11.9,39.6-21.8c6.8-5.9,13.5-12.4,23.2-11.5
				c8.7,0.8,16.6,5.8,25,7.7c15.2,3.3,28.5-4.7,42.9-8.2c18.7-4.6,33.2,6.4,46.7,18c19,16.4,49.1,39.1,71,14
				c5-5.7,9.7-14.4,18.4-14.4c9.4,0.1,19.6,7.4,27.4,12.1c13.6,8.2,27.2,17.8,43,21.2c13.3,2.8,28.3,1.5,39.2-7.3
				c6.4-5.1,10.6-17.4,19.1-18.6c8.8-1.3,17.9,7.3,25.2,11.3c24.6,13.7,54.3-2.7,61.8-28.4c-1.9,0.2-3.8,0.5-5.7,0.7
				c9.9,16.7,32.3,23.6,49.4,13.6c4.3-2.5,7.6-6.1,10.7-9.9c2.1-2.5,4.2-5.5,7-7.3c5.5-3.4,11.3,0.4,16.1,3.2
				c12,7.3,24.5,12.6,38.5,14.7c13,2,26.4,1.4,39.2-1.9c13.4-3.5,24.7-10.6,36.7-17.1c15.7-8.4,29.6-8.5,45.6-1.1
				c11.5,5.3,22.7,13.2,35.3,15.8c19.6,4,44.4-5.3,44.8-28.1c-1.9,0.5-3.9,1-5.8,1.6c6.8,16.2,25.6,22.4,41.8,17.6
				c20.3-6,32.9-26.5,43.5-43.3c-1.9-0.2-3.8-0.5-5.7-0.7c4.2,22,13.2,58,40,61.9c14.6,2.1,26.3-7.5,38.3-14.1
				c9.4-5.1,18.4-6.8,28.9-4.3c9.4,2.2,18.1,6.7,27.2,9.9C1343.7,58.5,1345.3,52.5,1341.5,51.2z"/>
		</g>
	</g>
	<g>
		<path class="st1" d="M1290.9,92.4C1290.9,92.4,1290.9,92.4,1290.9,92.4c-13.5-3.8-27.1-10-41.1-7.8c-15.1,2.4-27.2,14.3-42.5,14.2
			c-22.6-0.1-33.2-24.2-37.8-43.6c-9,11.3-18.6,23.1-32.8,28.8c-14.3,5.7-34.4,2.5-40.5-10.1c0.4,16.1-25.2,22.2-42.7,17.1
			c-17.4-5.1-33.6-16-51.8-14.7c-13,0.9-24.2,8-36.1,12.7c-26.3,10.5-58.3,9.2-83.5-3.2c-5.1-2.5-10.7-5.6-16.4-4.4
			c-5.7,1.2-9.1,6-13.2,9.6c-13.1,11.3-38.1,8.7-47.7-5c-6,17.7-31.7,27.9-50.8,20c-10.5-4.3-21.8-13.1-31.7-7.8
			c-3.8,2-5.9,5.6-8.8,8.5c-11.1,11.4-31.4,11.8-47.4,6.8c-16.1-5-30-14.3-45.8-19.9c-4.7-1.7-9.9-3-14.8-1.8
			c-7.9,1.9-12,9.5-18.6,13.9c-13.8,9.2-33.8,2.3-47.6-6.8s-27.5-20.9-44.9-21.3c-15.4-0.3-29.7,8.8-45,7.4c-11.3-1-22-7.8-33.1-5.8
			c-7.2,1.3-12.9,5.9-18.7,9.8c-21.5,14.4-50.3,20.1-76.8,15.2c-13.2-2.4-27.1-7.3-39.5-2.6c-6.9,2.6-12,7.8-18.8,10.7
			c-14,5.8-30.2,0.1-45.5-1.9c-26.9-3.4-55.5,6.4-72.6,24.9c-3.4,3.7-6.8,8-12.1,9.2c-4.2,1-8.5-0.3-12.8-1
			c-25-4.2-51.8,14.1-53.1,36.4c7.7-3.1,11,9.3,6.2,15.4c-4.8,6.1-12.5,13.4-7.8,19.5c1.6,2.2,4.4,3.4,6.7,5
			c13.3,9.5,5.9,28-1.2,41.7c-7.1,13.7-10,34.3,6.1,39.7c2.8-15.1,28.7-14.8,43.4-6.6c14.8,8.2,30.1,20.7,46.9,16.6
			c19.1-4.7,28.7-29.2,48.5-27.7c9.8,0.8,17,8.1,25.6,12.4c24.9,12.4,58.5-1.6,84,9.8c6.3,2.8,12,7.2,19,8.3
			c13.1,2.1,24.7-7.6,37.8-9.5c26.6-3.8,49.2,25.1,75.5,20.2c18.6-3.4,30.3-22.6,49.3-23.5c18-0.8,31.7,15.7,49.7,17.2
			c20,1.7,35.7-15.3,55.4-18.8c27.2-4.7,50.7,16.8,77.7,22.3c18.9,3.8,38.4-0.5,57.7-2.1c19.3-1.5,41.2,0.8,53.4,14
			c8-6.5,16-13,24-19.5c2.8,12,23.8,16.3,32.4,6.7c3.3-3.7,5-8.9,9.7-11.1c9.5-4.5,18.6,6.4,28.2,10.6c14.1,6.2,30.3-2.3,43.9-9.2
			s33.3-11.7,43.1-0.9c2.9,3.1,4.5,7.3,8.3,9.5c5.7,3.2,13.2,0.6,19.1-2.4c25.5-12.9,55.1-31.6,81.3-19.6
			c13.8,6.3,23.7,20.6,39.2,20.6c24.3,0.1,38.6-34.9,61.7-28.3c6.3,1.8,11,6.5,17.2,8.4c15.2,4.7,29.4-8.6,44.7-13
			c26.3-7.6,53.1,11.7,80.7,11.6c-2.8-12.5-5.5-24.9-8.3-37.4c6.1,5.4,16.9,2.4,23.3-2.7c6.4-5.2,11-12.2,18.7-15.8
			c12.3-5.6,31.9-2.9,36.2-14.4c6.3-17.1-32.1-19.5-39.4-36.3c12.3-0.1,23.5-9.5,24.2-20.3c-6.5-0.9-12.4-4.8-15.2-10
			c-0.8-1.5,12.1-15.2,10.9-20.5c-2.8-12.5-10.1-5.7-20.3-9.1c-18.6-6.2-22.8-29.9-33.8-43.7C1319.6,96.3,1304.3,96.2,1290.9,92.4z"
			/>
	</g>
</g>
</svg>
