<?xml version="1.0" encoding="utf-8"?>
<!-- Generator: Adobe Illustrator 27.9.4, SVG Export Plug-In . SVG Version: 9.03 Build 54784)  -->
<svg version="1.1" id="Calque_1" xmlns="http://www.w3.org/2000/svg" xmlns:xlink="http://www.w3.org/1999/xlink" x="0px" y="0px"
	 viewBox="0 0 1014.7 249.3" style="enable-background:new 0 0 1014.7 249.3;" xml:space="preserve">
<style type="text/css">
	.st0{fill:#191F06;}
	.st1{fill:#EFEF30;}
	.st2{fill:#E00051;}
	.st3{fill:#57BC28;}
</style>
<path class="st0" d="M471.1,159.1c-0.9-5.4-4.2-10.4-8.4-13.9c-4.9-3.9-10.8-5.8-16.9-6.6c-6.3-0.8-12.7-0.6-19-0.5
	c-5.5,0.1-11,0.2-16.4,0.6c6.5-5.3,11.6-12.4,14.9-20.2c2.4-5.8,3.8-12,4.2-18.3c0.2-2.4,0.2-5,0.1-7.5c-0.2-4.3-1-8.6-2.8-12.4
	c-2.5-5.4-7.1-9.4-11.9-12.6c-5.2-3.4-10.9-6.1-16.7-8.1c-12.2-4.2-25.1-4.9-37.7-1.9c-3.4,0.8-6.7,1.8-10.1,2.9
	c-3.1,1-6.3,2-9.3,3.3c-6,2.6-11,7-15.7,11.4c-3.7,3.4-7.2,6.9-10.5,10.6c0-0.1,0-0.2,0-0.3c-0.4-3.1-1.5-6-3.3-8.5
	c-3.7-5.2-9.3-8.6-15.6-10c-7.1-1.5-14.4-0.8-21.4,0.6c-5.6,1.1-11.1,2.8-16.3,5.4c-4.9,2.4-9.5,5.7-12.9,9.9
	c-0.1,0.1-0.2,0.3-0.3,0.4c-4.2,5.3-6.1,11.6-6.6,18.3c-0.5,7.4,0.2,15,0.7,22.4c0.5,6.9,1.2,13.7,2,20.6c-1.9-3.1-3.9-6.1-6-8.9
	c-3.2-4.3-6.6-8.6-10-12.7c-3.5-4.3-7.3-8.2-11.8-11.6c-8.6-6.6-18.7-11.4-29-15c-9.4-3.2-19.2-5.3-29.1-6.2
	c9.1-6,18.1-12.2,26.8-18.8c2-1.5,4-3,6-4.6c3.4-2.6,6.8-5.3,10.1-8c4.4-3.6,8.9-7.4,11.8-12.4c3.1-5.5,3.4-11.6,0.9-17.3
	c-2.3-5.4-6.4-10.2-10.8-13.9c-4.4-3.8-9.5-6.8-15-8.8c-6.1-2.2-12.5-3-19-3.3c-14-0.8-28.1-1.2-42.2-1.7
	c-7.1-0.3-14.2-0.6-21.3-0.9c-6.9-0.3-13.9-0.8-20.8-0.1c-6,0.6-11.9,2.2-17,5.6c-4.8,3.3-8.5,8-9.8,13.8c-1.4,6.1-0.4,12.5,1,18.6
	c1.4,5.8,3.1,11.5,4.1,17.3c1.1,6.6,1.7,13.4,1.6,20.2c-0.2,15.2-3.5,30.4-9.6,44.3c-2.8,6.3-6.1,12.4-10,18.2
	c-2.4,3.5-4.9,6.8-7.6,9.9c-7.6,8.8-16.7,16.1-23.8,25.4c-3.6,4.8-6.6,10-8.4,15.7c-1.9,6.1-2.6,12.6-2.3,19
	c0.3,6.1,1.4,12.3,4.2,17.8c2.7,5.1,7,8.7,12.2,10.8c4.9,2,10.4,2.5,15.7,2.6c6.2,0.1,12.5-0.4,18.8-0.6c14.1-0.4,28.3-0.5,42.5,0
	c14.1,0.5,28.2,1.8,42.2,3.5c13.9,1.7,28,3.3,42.1,2.2c18.5-1.5,37.6-8.4,49.5-22.8c1.8,9.3,9.2,17.2,17.8,21.2
	c13.1,6.2,28.2,3.4,41.4-1c12.1-4.1,27.6-9.4,31.5-23.1c8,7.1,17.7,12.2,28.1,14.8c13.3,3.3,27.3,1.9,40.8,1.5
	c7.2-0.2,14.3-0.4,21.5-0.7c6.8-0.2,13.6-0.4,20.3-1.9c9.3-2.1,18.7-7.7,22.5-16.6c0.7-1.6,1.2-3.3,1.5-5.1c1-6.3-0.5-12.6-3.2-18.3
	c-0.6-1.4-1.4-2.8-2.2-4.1c-0.6-1-1.1-2-0.7-3.2c0.8-2.2,3.3-3.1,5.4-3.6c3.2-0.8,6.5-0.9,9.5-2.4c2.3-1.1,4.3-2.8,5.9-4.8
	C470.6,170.2,472,164.6,471.1,159.1z M218.7,223.7c-7.6,7-17.4,11.3-27.3,13.8c-12,3-24.4,2.9-36.6,2c-13.6-1-27-3.2-40.6-4.3
	c-13.6-1.1-27.3-1.6-40.9-1.6c-6.9,0-13.8,0.1-20.7,0.3c-6.1,0.2-12.2,0.6-18.3,0.6c-5.1,0-10.3-0.3-15.1-2c-4.8-1.7-8.4-5-10.7-9.5
	c-2.5-5-3.2-11-3.4-16.5c-0.2-6.1,0.7-12.2,2.9-18c3.9-10.4,12.1-18.4,19.8-26.1c3.9-3.8,7.8-7.7,11.3-11.9
	c2.8-3.3,5.4-6.8,7.8-10.4c0.7-1,1.3-2,1.9-3c11.4-18.3,17.6-39.8,17.9-61.4c0-0.2,0-0.4,0-0.6c0.1-11.2-1.6-22.1-4.5-32.8
	c-1.5-5.7-3.1-11.5-2.9-17.4c0.2-5.4,2.5-10.2,6.7-13.7c9.5-7.8,23.1-6.2,34.5-5.8c13.7,0.6,27.5,1.1,41.2,1.7
	c6.8,0.3,13.7,0.6,20.5,0.8c6.3,0.3,12.7,0.6,18.8,2.4c10.1,3,19.9,10.2,24.7,19.8c1.3,2.5,2,5.3,1.8,8.1c-0.2,2.4-1.2,4.7-2.6,6.7
	c-3,4.6-7.5,8.1-11.7,11.5c-3.9,3.1-7.9,6.2-11.9,9.3c-6.3,4.8-12.8,9.4-19.4,13.9c-5.2,3.6-10.6,7.1-15.9,10.5
	c-2.1,1.3-1.2,4.6,1.3,4.7c20.8,0.5,42.2,6.5,59.5,18.2c8.7,5.9,15.1,14,21.4,22.2c6,7.8,12.1,16.4,14.1,26.2
	c0.3,1.6,0.5,3.2,0.5,4.7c0.2,9.7-4.8,19.2-7.8,28.1c-1.9,5.8-3.8,11.6-6.7,16.9C225.9,215.9,222.7,220.1,218.7,223.7z M313.6,214.9
	c-0.2,2.9-1.4,5.6-3,7.9c-3.4,5-9.1,8-14.6,10.3c-6.3,2.7-12.9,5-19.5,6.7c-6.5,1.6-13.4,2.5-20.1,1.6c-10.2-1.4-20.8-8.3-23.8-18.6
	c-0.7-2.4-0.9-4.8-0.7-7.2c0-0.1,0-0.2,0-0.3c0.4-0.8,0.9-1.5,1.3-2.4c2.8-5.5,4.8-11.4,6.8-17.3c3.3-9.7,8.2-19.4,8-29.9
	c0-0.3,0-0.7-0.1-1c-0.1-1.5-0.3-3.1-0.6-4.6c0.2-0.4,0.3-0.8,0.3-1.2c-1.7-14.8-3.5-29.7-4.2-44.6c-0.3-6.7-0.8-13.8,1.3-20.3
	c1.1-3.4,3-6.4,5.4-9c1-1.1,2.2-2.2,3.3-3.1c4.1-3.2,8.9-5.5,13.8-7.1c5.5-1.8,11.4-3,17.2-3.4c6.2-0.4,12.8,0.2,18.1,3.8
	c4.2,2.8,7.5,7.4,7.4,12.6c0,3.4-1.4,6.6-2.6,9.7c-0.5,1.2-0.9,2.4-1.3,3.7c-0.7,2-1.4,4.1-2,6.2c-2.1,7-3.8,14-5.3,21.2
	c-1.5,7-3.2,14.1-4.1,21.3c-1,7-1,14,0.4,21c0.2,0.9,0.4,1.8,0.6,2.7c1.4,5.5,3.5,10.8,5.9,15.9c1.5,3,3.1,6,4.8,8.8
	c1.7,2.8,3.6,5.5,5.1,8.3C312.9,209,313.8,211.8,313.6,214.9z M463.6,171c-1.2,1.7-3,3.2-4.9,4.1c-2.9,1.3-6.1,1.2-9.1,2.1
	c-2.8,0.8-5.3,2.3-7,4.8c-1.8,2.6-1.5,5.6-0.2,8.4c1.3,2.6,2.8,5,3.8,7.8c0.4,1.3,0.8,2.6,1.1,3.9c0.3,1.5,0.5,3,0.5,4.6
	c0.1,5.3-2,10.1-5.8,13.8c-8.9,8.6-22.1,8.8-33.7,9.2c-13.9,0.4-27.9,1.1-41.8,1.2c-6.3,0.1-12.6-0.3-18.8-1.8
	c-5.5-1.3-10.8-3.4-15.7-6.1c-4.8-2.7-9.2-6-13.2-9.9c-0.1-0.1-0.1-0.1-0.2-0.2c-0.1-1.4-0.3-2.9-0.8-4.3c-1-3.2-2.8-6.2-4.7-9
	c-3.7-5.8-7.2-11.9-9.8-18.3c-0.7-1.8-1.4-3.7-2-5.5c-1.4-4.6-2.4-9.4-2.6-14.2c-0.3-7.6,1.1-15.1,2.7-22.6c1.6-7.4,3.1-14.9,5-22.3
	c0.9-3.5,1.9-7,3-10.5c0.5-1.7,1.1-3.3,1.7-5c0.7-1.8,1.4-3.7,2-5.6c0.2-0.7,0.5-1.4,0.7-2.2c0.5-0.1,0.9-0.3,1.2-0.7
	c4.3-5,8.9-9.8,13.8-14.2c4.5-4.1,9.3-8.3,15-10.6c3.1-1.2,6.3-2.2,9.5-3.1c3.2-1,6.4-1.9,9.6-2.6c6-1.3,12.1-1.7,18.2-1.2
	c11.7,1.1,23.5,5.5,32.9,12.4c4.5,3.3,8,7.6,9.4,13.1c0.4,1.8,0.7,3.7,0.9,5.7c0.4,4.5,0,9.2-0.7,13.5c-2,11.2-7.6,21.8-16.5,29.1
	c-2.6,2.1-5.5,3.9-8.6,5.3c-1.1,0.2-2.2,0.4-3.2,0.6c-3.3,0.7-6.5,1.6-9.8,2.2c-1.4,0.3-2.8,0.4-4.2,0.6c-1.7-0.2-3.2-0.8-4.4-2.2
	c-3.8-4.5-2.7-11.2-4.4-16.5c-1.7-5.1-6.5-10.1-12.3-7.9c-2.8,1.1-4.8,3.2-6.7,5.5c-1.9,2.4-3.7,5-5.3,7.7
	c-3.1,5.3-5.7,11.2-6.9,17.3c-1.2,5.9-0.2,11.7,2.4,17c2.5,5.1,6.4,9.6,10.5,13.5c3.9,3.8,9,9.4,15.1,8.1c2.6-0.6,5-2.5,5.8-5.1
	c0.8-2.9-0.9-5.8-3.3-7.3c-2.8-1.7-6-1.4-9.1-1.6c-2.4-0.1-4.7-1-6.5-2.4c-3.7-2.8-5.5-7.4-4.4-11.9c1.2-5,5-8.3,10-9.3
	c5.7-1.1,11.7,0.4,17.5,0.3c0.7,0,1.4-0.1,2.1-0.1c0.9,0.1,1.7,0.1,2.6,0.1c5.5-0.1,10.9-1.5,15.9-3.7c6.3-1,12.6-1.5,18.9-1.7
	c6.5-0.2,13.1-0.4,19.7-0.2c5.8,0.2,11.8,0.8,17,3.5c4.4,2.3,8.2,6.1,9.8,10.9C467.1,162.1,466.5,167.1,463.6,171z M372.4,143.4
	c-1.8-0.1-3.6-0.3-5.4-0.3c-5.9-0.1-12,1.3-16,5.9c-2.2,2.6-3.7,5.8-4.2,9.1c-1.1-4.1-0.9-8.2,0.3-12.5c1.7-5.9,4.5-11.5,7.9-16.6
	c2.1-3,6.7-10.4,10.8-6.2c1.9,1.9,2.5,4.8,2.9,7.3c0.5,3.1,0.7,6.3,1.7,9.2C371,140.8,371.6,142.1,372.4,143.4z M360.5,176.7
	c2.2,0.3,4.4,0.2,6.7,0.5c1,0.1,1.9,0.4,2.7,1c0.6,0.5,0.8,1.2,0.6,1.7c-1.1,2-3.7,1.4-5.3,0.5C363.4,179.4,361.9,178.1,360.5,176.7
	z"/>
<path class="st1" d="M463.6,171c-1.2,1.7-3,3.2-4.9,4.1c-2.9,1.3-6.1,1.2-9.1,2.1c-2.8,0.8-5.3,2.3-7,4.8c-1.8,2.6-1.5,5.6-0.2,8.4
	c1.3,2.6,2.8,5,3.8,7.8c0.4,1.3,0.8,2.6,1.1,3.9c-1.9-3.6-4.4-6.7-7.8-9.2c-8.6-6.4-20-7.2-30.7-7.8c-4.7-0.2-9.4-0.5-13.9,0.7
	c-4.8,1.3-8.9,4.1-13.4,6.1c-15.1,6.6-32.7,3.8-48.2-1.9c-10.9-4.1-21.2-9.5-31.8-14.1c-1.4-4.6-2.4-9.4-2.6-14.2
	c-0.3-7.6,1.1-15.1,2.7-22.6c1.6-7.4,3.1-14.9,5-22.3c0.9-3.5,1.9-7,3-10.5c0.5-1.7,1.1-3.3,1.7-5c7.4,0.2,14.7-0.6,21.8-2.7
	c8.9-2.6,17.2-7.1,26.1-9.5c20.9-5.6,43.6,0.6,65.4,3.2c0.4,4.5,0,9.2-0.7,13.5c-2,11.2-7.6,21.8-16.5,29.1
	c-2.6,2.1-5.5,3.9-8.6,5.3c-1.1,0.2-2.2,0.4-3.2,0.6c-3.3,0.7-6.5,1.6-9.8,2.2c-1.4,0.3-2.8,0.4-4.2,0.6c-1.7-0.2-3.2-0.8-4.4-2.2
	c-3.8-4.5-2.7-11.2-4.4-16.5c-1.7-5.1-6.5-10.1-12.3-7.9c-2.8,1.1-4.8,3.2-6.7,5.5c-1.9,2.4-3.7,5-5.3,7.7
	c-3.1,5.3-5.7,11.2-6.9,17.3c-1.2,5.9-0.2,11.7,2.4,17c2.5,5.1,6.4,9.6,10.5,13.5c3.9,3.8,9,9.4,15.1,8.1c2.6-0.6,5-2.5,5.8-5.1
	c0.8-2.9-0.9-5.8-3.3-7.3c-2.8-1.7-6-1.4-9.1-1.6c-2.4-0.1-4.7-1-6.5-2.4c-3.7-2.8-5.5-7.4-4.4-11.9c1.2-5,5-8.3,10-9.3
	c5.7-1.1,11.7,0.4,17.5,0.3c0.7,0,1.4-0.1,2.1-0.1c0.9,0.1,1.7,0.1,2.6,0.1c5.5-0.1,10.9-1.5,15.9-3.7c6.3-1,12.6-1.5,18.9-1.7
	c6.5-0.2,13.1-0.4,19.7-0.2c5.8,0.2,11.8,0.8,17,3.5c4.4,2.3,8.2,6.1,9.8,10.9C467.1,162.1,466.5,167.1,463.6,171z"/>
<path class="st1" d="M306,101c-0.7,2-1.4,4.1-2,6.2c-2.1,7-3.8,14-5.3,21.2c-1.5,7-3.2,14.1-4.1,21.3c-1,7-1,14,0.4,21
	c0.2,0.9,0.4,1.8,0.6,2.7c-2.6-1-5.2-2-7.8-2.8c-12.8-4.1-26.4-5.7-39.8-4.9c0-0.3,0-0.7-0.1-1c-0.1-1.5-0.3-3.1-0.6-4.6
	c0.2-0.4,0.3-0.8,0.3-1.2c-1.7-14.8-3.5-29.7-4.2-44.6c-0.3-6.7-0.8-13.8,1.3-20.3c1.1-3.4,3-6.4,5.4-9c9.1,3.6,18.1,7.3,27.4,10.2
	C286.7,98,296.4,100.2,306,101z"/>
<path class="st1" d="M243,166.1c-3.3,0.4-6.7,0.9-10,1.6c-9.4,2-18.6,5.2-28.2,5.9c-7.8,0.6-15.7-0.6-23.4-1.7
	c-11.3-1.7-22.6-3.3-33.8-5.2c-0.5-2.9-1.6-5.7-2.7-8.3c-1.2-2.6-2.6-5.2-4.7-7.2c-10.1-10-24.9-2.9-36.9-3.9
	c-0.8-0.1-1.8,0.5-2.2,1.2c-1.3,2.7-2.6,5.4-3.9,8.1c-8.2-2.1-16.4-4.4-24.5-7c-8.7-2.8-17.2-6-25.7-9.3c0.7-1,1.3-2,1.9-3
	c11.4-18.3,17.6-39.8,17.9-61.4c14.3-0.3,29-1.9,42.5-2.6c7.3-0.3,14.6-0.8,21.7-2.6c8-2.1,15.6-5.9,23.8-7.1
	c7.7-1.1,15.6,0.2,23.3,1.6c1.1,0.2,2.3,0.4,3.4,0.6c-6.3,4.8-12.8,9.4-19.4,13.9c-5.2,3.6-10.6,7.1-15.9,10.5
	c-2.1,1.3-1.2,4.6,1.3,4.7c20.8,0.5,42.2,6.5,59.5,18.2c8.7,5.9,15.1,14,21.4,22.2c6,7.8,12.1,16.4,14.1,26.2
	C242.8,162.9,242.9,164.5,243,166.1z"/>
<path class="st0" d="M1013.5,213.8c-1.9-4.7-5.3-8.6-9.1-11.9c-3.8-3.2-7.9-6.1-11.4-9.7c-3.6-3.8-5.4-8.6-6.9-13.6
	c-0.7-2.2-1.3-4.3-2-6.5c-2.7-9.1-5.1-18.3-5.6-27.8c-0.3-5.9,0.5-11.5,1.3-17.3c0.7-4.5,1.2-9.1,0.4-13.6c-0.2-1.2-0.5-2.3-0.9-3.5
	c-1.6-4.5-4.4-8.5-6.2-12.9c-0.8-2.1-1.4-4.3-1.4-6.6c0.1-2.4,0.9-4.7,2-6.8c2.4-4.7,5.8-8.8,8.4-13.3c2.7-4.6,5-9.5,6.4-14.6
	c1.4-5,1.8-10.3,0.7-15.5c-1-4.8-3.4-9.1-6.7-12.7c-6.9-7.5-16.8-11.2-26.6-12.7c-5.7-0.9-11.5-1.2-17.2-1.5c-6-0.3-12-0.6-18.1-0.9
	c-11.2-0.6-22.8-1.1-33.1,3.8c-8.6,4.1-15.3,12.2-15.2,22.1c0.1,4.5,1.6,9.1,4.8,12.4c3.5,3.8,8.6,5.4,13.4,6.8
	c5.6,1.6,11.1,3.3,16.5,5.3c2.6,1,5.2,2,7.8,3.1c2.5,1.1,5.1,2.1,7.4,3.6c4.1,2.7,3.8,7.2,2.7,11.5c-1.4,5-3.3,9.7-3.7,15
	c-0.4,5.1,0.4,10.3,2.3,15c0.9,2.4,2.1,4.7,3.6,6.9c1.1,1.6,1.9,2.8,0.6,4.2c-2.8,2.8-8,2.3-11.5,1.6c-4.6-1-8.9-3.1-13.1-5.2
	c-4.5-2.2-8.9-4.6-13.7-6.1c-5.3-1.7-11.1-2.3-16.7-1.9c-5,0.3-9.8,1.3-14.6,2.8c0-0.1,0-0.3,0-0.4c-1.4-9.7-12.2-15-20.8-16.7
	c-4.6-0.9-9.2-1.3-13.9-1.4c-5.7-0.1-11.5,0-17.2,0.4c-8.9,0.6-18.3,2.2-25.2,8.1c-4.5,3.8-6.9,9-7.9,14.5
	c-0.7,3.7-0.7,7.6-0.4,11.4c0.8,9.3,3.7,18.3,3,27.7c-0.3,4.1-1.3,8.2-3.7,11.6c-2.1,2.9-6.2,6.2-9.7,4.1c-2.8-1.7-3.8-5.7-3.6-8.9
	c0.3-5.1,2.9-9.9,3.8-15c0.9-5.3,0.1-10.6-2.5-15.4c-1.1-2.1-2.7-3.9-4.1-5.8c-1.1-1.6-2.4-3.4-2.5-5.4c0-1.6,0.6-2.7,1.6-4
	c0.7-0.9,2.1-2.2,3.1-3.3c0.1-0.1,0.2-0.1,0.2-0.2c2.5-2.5,5.1-5.2,5.3-9c0.2-5-4.3-8.8-8.4-10.8c-4.4-2.1-9.3-2.8-14.2-2.9
	c-5.3-0.1-10.7,0.4-16,1c-5.9,0.6-11.8,1.3-17.6,2.3c-2.1,0.3-4.3,0.6-6.4,1c-3.1,0.5-6.2,1.3-9,2.7c-4.5,2.3-6.9,6.5-7.4,11.4
	c-0.3,2.5-0.1,5.1,0.4,7.6c-2.9-2-5.8-3.9-9.1-5.3c-4.3-1.9-8.7-2.9-13.3-3.5c-4.3-0.6-8.6-0.8-12.9-1.7c-0.6-0.1-1.2-0.3-1.9-0.4
	c7.4-5,14.8-9.9,22-15c3.5-2.5,6.9-5,10.1-7.9c3.3-2.9,6.4-6.2,9-9.8c4.9-6.9,7.4-15.4,6.3-23.9c-1.1-8.6-5.3-16.4-11.1-22.8
	c-13.2-14.5-33.2-18.5-52-19.1c-10.4-0.3-20.9-0.2-31.2,0.8c-5.5,0.5-10.9,1.4-16.4,1.8c-5.6,0.4-11.1,0-16.6-0.3
	c-9.3-0.4-19.4,0.4-26.6,6.9c-7.2,6.5-7.5,16.8-5.1,25.6c2.6,9.4,8.5,18,8.9,28c0.2,6.7-1.8,13.1-4.8,18.9c-1.1,2.2-2.4,4.4-3.7,6.4
	c-5.3,8.2-11.8,15.7-17.7,23.4c-6.2,8-12.1,16.1-17.3,24.8c-7.9,13.4-14.7,29-15.1,44.8c-0.1,4.6,0.3,9.1,1.3,13.7
	c1.9,8.4,6.2,16.6,12.7,22.5c7.2,6.5,16.5,9.3,25.9,10.7c5,0.7,10,1.1,15.1,1.5c5.4,0.4,10.9,0.8,16.4,0.8c5.4,0,10.8-0.4,16.2-1
	c5.5-0.7,10.9-1.3,16.4-1.2c5.4,0.1,10.9,0.6,16.3,1.2c10.2,1.1,20.4,2.2,30.6,3.4c5,0.6,10,1.2,15.1,1.9c4.7,0.6,9.4,1.6,14.1,1.9
	c16.5,0.7,32.1-8.9,41.2-22.2c0.4-0.5,0.7-1.1,1.1-1.6c4.4,7,11.9,11.8,19.6,14.6c5.2,1.9,10.7,2.9,16.1,3.7
	c5.8,0.8,11.6,1.3,17.4,0.9c11.2-0.7,22.1-3.9,32.6-7.8c5.2-1.9,10.3-4,15.4-6.1c2.9-1.2,5.8-2.6,8.3-4.5c7,14,21.4,23.3,36.7,26.1
	c10.1,1.9,20.4,1.2,30.4-0.9c9.5-2.1,19-5.4,27.7-9.8c7.2-3.6,14-8.3,19-14.6c0.9,2.8,2.1,5.5,4.1,7.9c3.5,4.3,8.8,5.5,14.1,6.4
	c11.8,2.2,23.9,3.3,36,3c10.1-0.2,21.8-2.5,27-12.2C1015.1,223.6,1015.3,218.5,1013.5,213.8z M706.7,214.4c-0.3,0.3-0.5,0.6-0.6,1
	c-7.3,13.1-20.4,23.6-35.7,24.6c-4.2,0.3-8.2-0.4-12.4-1c-5-0.7-9.9-1.4-14.9-2c-9.7-1.2-19.5-2.4-29.3-3.4
	c-2.5-0.3-4.9-0.5-7.4-0.8c-5.4-0.6-10.8-1.1-16.3-1.2c-5.3-0.1-10.5,0.5-15.7,1.1c-5.2,0.6-10.4,1.1-15.7,1.1
	c-5.4,0-10.8-0.3-16.1-0.7c-9.3-0.7-18.9-1.1-27.7-4.2c-8.1-2.8-14.4-8.4-18.5-15.9c-4.1-7.4-5.5-15.6-5.2-23.8
	c0.4-10.4,3.8-20.9,8.2-30.2c8.3-17.6,20.6-32.6,32.5-47.8c5-6.4,9.9-13,13.4-20.3c0.5-1.1,1-2.2,1.5-3.4c1.7-4.2,2.8-8.7,3.1-13.3
	c0.2-4.8-0.6-9.5-2.1-14c-2.9-8.7-8-17-8.1-26.4c-0.1-4,0.9-8.1,3.6-11.2c2.6-2.9,6.1-4.7,9.8-5.7c9.7-2.7,20-0.2,29.9-0.7
	c5.3-0.3,10.6-1.1,15.9-1.7c5.3-0.6,10.6-0.8,15.9-1c18.4-0.5,38.7-0.7,55.1,8.9c13.1,7.7,23.9,23.5,19.6,39.2
	c-2.1,7.8-7.5,14-13.5,19.2c-0.2,0.2-0.5,0.4-0.8,0.7c-6.6,5.6-14.1,10.3-21.3,15.2c-4.4,2.9-8.7,5.9-13.1,8.9
	c-1.4,0.9-1.9,3.5,0,4.3c8.2,3.5,17,3.1,25.6,4.9c8.5,1.8,15.4,7,22.1,12.3c6.3,5,12.6,10,17.9,16.2c5.4,6.3,8.9,13.7,9.9,21.9
	c0.3,2.3,0.4,4.6,0.5,7c0.1,6.4-0.8,12.8-2.1,19C712.9,199.2,710.5,207.2,706.7,214.4z M818.9,213.6c-2.3,4.1-6.3,6.3-10.4,8.1
	c-9.8,4.2-19.9,8.2-30.2,10.9c-5.1,1.3-10.2,2.4-15.5,2.8c-5.6,0.4-11.2,0.2-16.7-0.6c-9.7-1.3-20.1-3.4-27.8-9.8
	c-2.9-2.4-5.3-5.3-6.9-8.6c2.9-5.5,5-11.5,6.6-17.5c2-7.8,3.4-16,3.6-24.1c0-0.9,0-1.9,0-2.8c-0.1-9.1-2.2-18.1-7.1-25.8
	c-4.5-7.1-10.8-12.8-17.2-18.1c-2.2-1.8-4.3-3.5-6.5-5.2c0-0.1,0-0.3-0.1-0.4c-1-3.9-2.2-8.2-1.4-12.3c0.3-1.9,1.1-3.6,2.4-4.9
	c1.5-1.5,3.6-2.3,5.6-2.9c3.5-1,7.1-1.6,10.7-2.1c1.8-0.3,3.5-0.5,5.2-0.8c5.5-0.8,11-1.4,16.6-1.8c4.9-0.4,9.8-0.8,14.7-0.3
	c4.1,0.4,8.5,1.6,11.6,4.4c0.8,0.7,1.5,1.4,2,2.4c0.1,0.2,0.2,0.4,0.2,0.7c0,0,0,0.3,0.1,0.4c0,0.1,0,0.3,0,0.4c0,0.1,0,0.3,0,0.5
	c-0.2,1.2-0.9,2.1-1.6,3c-1.5,1.7-3.2,3.2-4.7,4.8c-0.8,0.9-1.6,1.8-2.2,2.8c-2.4,3.8-1.9,8.2,0.4,11.9c1.2,1.9,2.6,3.6,3.9,5.4
	c1.4,2,2.4,4.1,3,6.5c2.4,9.7-5.4,18.4-3.2,28.1c0.9,3.9,3.2,7.6,7,9.2c4.7,1.9,9.8-0.5,13.1-3.9c6.2-6.6,7.1-16.1,6.3-24.8
	c-0.9-9.1-3.6-18-3-27.1c0.1-1,0.2-1.9,0.3-2.9c0.6-3.2,1.7-6.4,3.7-9c2.3-3.1,5.7-5.3,9.2-6.6c8.8-3.4,18.6-3.4,27.9-3.4
	c8.8,0,18.4,0,26.3,4.4c3.6,2,7.1,5,8,9.1c0.9,4-2.6,6-5.8,7.3c-2.1,0.8-4.1,1.5-6.1,2.5c-2.1,1.1-4,2.4-5.7,3.9
	c-1,0.9-1.9,1.8-2.8,2.8c-2.2,2.6-4,5.6-5.2,8.7c-1.9,4.9-1.4,9.8,0.6,14.6c1.8,4.2,4.4,8.3,4.4,13c0,2.8-0.6,5.4-1.4,8
	c-0.8,2.8-1.6,5.5-2.4,8.3c-0.1,0.3-0.1,0.5-0.2,0.8c-1.5,5.2-3,10.4-4.4,15.6c-0.8,2.8-1.6,5.6-2.4,8.3
	C820.6,209.4,820,211.6,818.9,213.6z M1009.6,222.1c-0.7,4.1-3.7,7.4-7.1,9.5c-4.3,2.6-9.5,3.4-14.5,3.6c-5.7,0.3-11.5,0.1-17.2-0.3
	c-5.8-0.4-11.6-1.1-17.3-2c-4.7-0.8-10.4-1.3-13.8-5c-2.8-3.1-3.7-7.6-4.7-11.5c-0.5-2.1-3.5-2.4-4.6-0.6c-4,7.1-10.4,12.1-17.5,16
	c-7.8,4.3-16.4,7.5-25.1,9.7c-16.8,4.4-35.2,4.3-50.3-5.1c-6.8-4.3-12.7-10.4-15.9-17.9c0.1-0.1,0.1-0.1,0.2-0.2
	c3.1-4.2,4.2-9.7,5.7-14.6c1.6-5.7,3.2-11.4,4.9-17.1c0.2-0.6,0.3-1.2,0.5-1.7c1.5-5.1,3.3-10.2,3.9-15.4c0.4-2.8,0.2-5.5-0.5-8.2
	c-0.7-2.4-1.8-4.6-2.8-6.9c-1-2.1-1.9-4.2-2.5-6.4c-0.6-2.4-0.3-4.7,0.5-7c1.2-3.7,3.6-7.1,6.5-9.7c0.4-0.4,0.9-0.8,1.4-1.2
	c1.7-1.3,3.5-2.4,5.5-3.2c2-0.9,4.2-1.5,6.2-2.5c2.6-1.2,4.6-3.1,5.7-5.4c0.2,0,0.3-0.1,0.5-0.1c10.2-3.3,21.2-4.7,31.5-1
	c9,3.2,16.9,9.2,26.3,11.1c4.5,0.9,9.7,1,13.7-1.4c1.9-1.1,3.6-2.9,4.1-5.1c0.6-2.6-0.5-4.9-1.9-6.9c-2.7-3.9-4.4-8.4-5-13.1
	c-0.6-4.9,0.2-9.5,1.7-14.2c1.5-4.7,3.3-9.6,2.4-14.6c-0.9-5.4-5.4-8.2-10-10.3c-5.2-2.4-10.6-4.6-16.1-6.5
	c-5.1-1.8-10.4-3.1-15.6-4.8c-4.2-1.4-8-3.4-10-7.4c-1.7-3.5-1.7-7.6-0.6-11.3c2.6-8.7,11.7-13.4,19.9-15.1
	c5.5-1.1,11.3-1.1,16.9-0.8c5.9,0.2,11.8,0.6,17.6,0.9c11,0.6,22.5,0.5,33,4.3c7.9,2.8,15.7,8.6,18.4,16.9
	c3.1,9.5-0.7,19.6-5.5,27.9c-5,8.6-13.4,16.8-11.1,27.7c1,4.6,3.6,8.7,5.7,12.9c0.9,1.7,1.6,3.4,2.1,5.2c0.1,0.5,0.2,0.9,0.3,1.4
	c0.5,2.7,0.4,5.4,0.1,8.1c-0.6,5.7-1.9,11.2-2,17c-0.1,5.8,0.5,11.6,1.6,17.3c1,5,2.2,9.9,3.7,14.9c0.2,0.7,0.4,1.4,0.6,2.1
	c1.5,5.2,2.9,10.7,5.4,15.6c4.7,9.1,14.4,13.3,20.8,20.9C1008.2,213.4,1010.4,217.7,1009.6,222.1z"/>
<path class="st1" d="M978.7,171.6c-21.5-1.7-43.8,3-63.5,12.1c-7.1,3.3-14.3,7.2-21.6,10.2c3.5-3,6.7-6.4,9.3-10
	c1.4-1.8,2.2-4,3-6.1c1.1-3.1,2.1-6.3,1.8-9.6c-0.5-6.1-5.5-11.2-10.6-14c-5.1-2.8-11.1-3.6-16.8-2.1c-5.4,1.4-11.2,5-13.8,10.1
	c-1.6,3.2-1.2,6.7-0.1,10c1,3,2.2,5.9,1.6,9.1c-0.9,5.3-4.6,11.7-2.5,17.1c-11.6-2.1-21.7-9.7-32.7-13.6c1.5-5.1,3.3-10.2,3.9-15.4
	c0.4-2.8,0.2-5.5-0.5-8.2c-0.7-2.4-1.8-4.6-2.8-6.9c-1-2.1-1.9-4.2-2.5-6.4c-0.6-2.4-0.3-4.7,0.5-7c1.2-3.7,3.6-7.1,6.5-9.7
	c2.5,0.5,4.9,1,7.4,1.5c29.8,6,62.7,11.6,88.8-3.9c5.6-3.3,10.7-7.5,16.4-10.5c7.4-3.9,15.9-5.7,24.2-5.3c0.1,0.5,0.2,0.9,0.3,1.4
	c0.5,2.7,0.4,5.4,0.1,8.1c-0.6,5.7-1.9,11.2-2,17c-0.1,5.8,0.5,11.6,1.6,17.3C976,161.7,977.3,166.6,978.7,171.6z"/>
<path class="st1" d="M827.6,153.3c1.8,4.2,4.4,8.3,4.4,13c0,2.8-0.6,5.4-1.4,8c-0.8,2.8-1.6,5.5-2.4,8.3c-0.1,0.3-0.1,0.5-0.2,0.8
	c-1.5-0.3-3-0.6-4.5-0.7c-12.4-1.2-24.3,4.7-36.4,7.4c-11.7,2.6-24.1,2.1-35.6-1.3c-10.6-3.2-20.3-8.8-30.1-14c0-0.9,0-1.9,0-2.8
	c-0.1-9.1-2.2-18.1-7.1-25.8c-4.5-7.1-10.8-12.8-17.2-18.1c-2.2-1.8-4.3-3.5-6.5-5.2c0-0.1,0-0.3-0.1-0.4c-1-3.9-2.2-8.2-1.4-12.3
	c0.3-1.9,1.1-3.6,2.4-4.9c1.5-1.5,3.6-2.3,5.6-2.9c3.5-1,7.1-1.6,10.7-2.1c2.7,1.3,5.4,2.6,8.1,3.7c11.5,4.7,23.7,7.4,35.9,9.9
	c-0.8,0.9-1.6,1.8-2.2,2.8c-2.4,3.8-1.9,8.2,0.4,11.9c1.2,1.9,2.6,3.6,3.9,5.4c1.4,2,2.4,4.1,3,6.5c2.4,9.7-5.4,18.4-3.2,28.1
	c0.9,3.9,3.2,7.6,7,9.2c4.7,1.9,9.8-0.5,13.1-3.9c6.2-6.6,7.1-16.1,6.3-24.8c-0.9-9.1-3.6-18-3-27.1c0.1-1,0.2-1.9,0.3-2.9
	c18.2,3.7,36.5,7.4,54.8,11.1c-2.2,2.6-4,5.6-5.2,8.7C825.2,143.6,825.6,148.5,827.6,153.3z"/>
<path class="st1" d="M716.1,165.2c-1.1-8.2-4.6-15.6-9.9-21.9c-5.2-6.1-11.6-11.2-17.9-16.2c-6.7-5.3-13.6-10.4-22.1-12.3
	c-8.6-1.8-17.4-1.4-25.6-4.9c-1.9-0.8-1.4-3.4,0-4.3c4.4-2.9,8.7-5.9,13.1-8.9c7.2-4.9,14.6-9.6,21.3-15.2c-12.8-7.1-26-13-40.5-14
	c-3.2-0.2-6.4-0.2-9.6,0.1c-0.9,0.9-1.9,1.7-2.9,2.5c-2.4,1.9-5.3,3.2-8.2,4.1c-3,0.9-6.4,1.3-9.3-0.1c-0.8-0.4-1.5-0.9-2.1-1.6
	c-11.4,3.9-22.4,9.4-33.6,13.9c-7.1,2.8-15.5,4.7-23.5,4.3c-3.5,7.3-8.3,13.9-13.4,20.3c-11.9,15.2-24.2,30.2-32.5,47.8
	c-4.4,9.3-7.8,19.8-8.2,30.2c4.3-0.2,8.8,0.3,13,0.6c18.1,1.4,36.2,2.8,54.2,4.2c13.6,1.1,27.2,2.1,40.8,2.6
	c13.9,0.5,28.7,0.1,40.6-7.2c10.4-6.4,17.5-17.4,28.4-22.8c13.3-6.6,29.5-3.2,43.1,2.9c1.8,0.8,3.5,1.6,5.3,2.5
	C716.5,169.9,716.4,167.5,716.1,165.2z M634.3,172.1c-2.1,2.8-5.2,4.4-8.4,5.5c-3.3,1.1-6.7,1.6-10.2,2c-1.6,0.2-3.1,0.3-4.7,0.5
	c-0.4,0-0.8,0.1-1.1,0.1c-0.1,0-0.3,0-0.4,0.1c0,0-0.1,0-0.1,0h0c0,0-0.1,0-0.1,0c-1.3,0.2-2.5,0.4-3.8,0.5
	c-11.4,1.4-22.9,1.9-34.4,1.3c-3.5-0.2-7.6-1-9.6-4.1c-2.6-4.1,0.4-9.1,2.9-12.4c4.7-6,13.6-11.3,13.3-19.8c0-1.1,0.8-2.1,1.8-2.4
	c10.5-2.6,21.6-2.3,31.9,1c4.6,1.5,9.1,3.5,13.2,6.1c4.1,2.6,8.4,5.7,10.6,10.1C637,164.2,636.9,168.6,634.3,172.1z"/>
<path class="st0" d="M635.2,160.4c-2.2-4.4-6.5-7.6-10.6-10.1c-4.1-2.6-8.6-4.6-13.2-6.1c-10.3-3.3-21.5-3.6-31.9-1
	c-1,0.3-1.9,1.3-1.8,2.4c0.3,8.5-8.7,13.8-13.3,19.8c-2.6,3.3-5.5,8.2-2.9,12.4c2,3.2,6.1,4,9.6,4.1c11.5,0.6,23,0.2,34.4-1.3
	c1.3-0.2,2.5-0.3,3.8-0.5c0,0,0,0,0.1,0h0c0,0,0.1,0,0.1,0c0.1,0,0.4,0,0.4-0.1c0.4,0,0.8-0.1,1.1-0.1c1.6-0.2,3.1-0.3,4.7-0.5
	c3.4-0.4,6.9-0.9,10.2-2c3.2-1.1,6.3-2.7,8.4-5.5C636.9,168.6,637,164.2,635.2,160.4z M630.5,168.9c-0.5,0.8-1.4,1.6-2.4,2.2
	c-1.3,0.8-2.2,1.2-3.5,1.6c-5.8,1.9-11.7,2-17.8,2.8c-11.8,1.6-23.8,2.1-35.7,1.4c-2-0.1-5.6-0.5-5.6-2.8c0-1.7,1.2-3.4,2.2-4.8
	c1-1.5,2.3-2.8,3.5-4.1c4.9-5.1,10.8-10.4,11.5-17.7c7.8-1.7,16-1.6,23.8,0.3c4.2,1,8.2,2.5,12,4.5c3.8,2,7.7,4.4,10.6,7.6
	c1.2,1.3,2.3,3,2.5,4.8C631.7,166.5,631.2,167.7,630.5,168.9z"/>
<path class="st0" d="M629.4,51.2c-2.2-3.2-5.8-5.1-9.5-6c-4.7-1.1-9.6-0.9-14.4-0.3c-2.3,0.3-4.9,0.5-7.1,1.2
	c-2.3,0.7-3.4,3-2.5,5.3c2.1,5.2,1.9,11.1,3.6,16.4c0.6,1.8,1.4,3.6,2.7,5c0.6,0.6,1.3,1.2,2.1,1.6c2.9,1.4,6.3,1,9.3,0.1
	c2.9-0.9,5.8-2.2,8.2-4.1c1-0.8,2-1.6,2.9-2.5c0.5-0.5,1-1,1.5-1.5c1.3-1.3,2.7-2.7,3.7-4.4C631.9,58.6,631.6,54.3,629.4,51.2z
	 M624.7,60.6c-3.5,4.1-7.6,7.6-12.8,9.1c-1,0.3-1.9,0.5-2.9,0.5c-1.1,0-1.9,0-2.7-0.5c-0.7-0.4-0.8-0.7-1.2-1.6
	c-0.3-0.7-0.6-1.6-0.9-2.5c-1.4-4.9-1.4-10.2-3.1-14.9c0.6-0.1,1.3-0.2,1.9-0.3c1.8-0.3,3.7-0.6,5.5-0.8c3.4-0.3,6.8-0.4,10.2,0.4
	c2.5,0.6,5.3,1.7,6.7,4C626.8,56.3,626.5,58.6,624.7,60.6z"/>
<path class="st0" d="M147.5,166.6L147.5,166.6c-0.5-2.9-1.6-5.7-2.7-8.3c-1.2-2.6-2.6-5.2-4.7-7.2c-10.1-10-24.9-2.9-36.9-3.9
	c-0.8-0.1-1.8,0.5-2.2,1.2c-1.3,2.7-2.6,5.4-3.9,8.1c-0.5,1-1,2.1-1.5,3.1c-1.7,3.4-4.1,6.3-5.8,9.7c-1.7,3.6-2.9,8.1,0.3,11.3
	c2.7,2.7,7.2,3.1,10.7,3.4c2,0.2,4,0.2,6.1,0.3c0.9,0,1.8,0.1,2.7,0.1c0.4,0,0.8,0.1,1.1,0.1c0.2,0,0.4,0,0.6,0.1c0,0,0.1,0,0.1,0
	c0,0,0.1,0,0.1,0c6,1,11.9,2.8,18,2.5c4.9-0.3,9.9-1.9,13.6-5.3C147.4,177.9,148.5,172.2,147.5,166.6z M141.2,176.5
	c-2.2,3.2-6.2,4.9-9.9,5.5c-5.2,0.8-10.6-0.5-15.7-1.6c-3.5-0.7-7-1-10.6-1.1c-3.5-0.2-6.8-0.2-10-1.4c0,0,0,0,0,0c0,0,0,0-0.1,0
	c-0.2-0.1-0.4-0.2-0.6-0.3c-0.1-0.1-0.2-0.2-0.4-0.2c0,0,0,0,0,0c0,0,0,0,0,0c-0.1-0.1-0.2-0.2-0.4-0.4c0,0,0-0.1-0.1-0.2
	c0-0.1-0.1-0.1-0.1-0.1c0,0,0,0,0,0c-0.1-0.2-0.1-0.4-0.2-0.6c0,0,0,0,0,0c0-0.2,0-0.5,0-0.7c0-0.2,0-0.4,0.1-0.9
	c0.2-0.9,0.5-1.7,0.9-2.4c1.6-3.5,4.2-6.4,5.9-9.9c0.7-1.5,1.4-3,2.1-4.4c0.9-1.8,1.8-3.7,2.7-5.5c5.3,0.2,10.4-0.9,15.7-1.4
	c4.3-0.4,9.1-0.4,13,1.6c4.2,2.1,6.4,6.4,8,10.7c0.3,0.9,0.6,1.8,0.9,2.7C143.2,169.3,143.4,173.3,141.2,176.5z"/>
<path class="st0" d="M143.7,36c-2.5-1.2-5.2-1.3-7.9-1.3c-2.8,0-5.5,0-8.3,0.1c-5.7,0.2-11.4,0.6-17.1,1.2c0,0-0.1,0-0.1,0
	c-0.2,0-0.4,0-0.6,0.1c-0.8,0.2-1.3,0.7-1.5,1.3c0,0,0,0.1,0,0.1c0,0.1-0.1,0.2-0.1,0.3c0,0.1,0,0.2-0.1,0.3c0,0.1,0,0.1,0,0.2
	c0,0.1,0,0.2,0,0.3c0,0.2,0,0.4,0.1,0.5c0,0,0,0,0,0c0,0.1,0,0.2,0,0.2c0,0,0,0,0,0c0,0.2,0.1,0.5,0.1,0.7c0.1,0.6,0.1,1.2,0.1,1.9
	c0.1,1.4,0.2,2.8,0.2,4.2c0.2,3.1,0.4,6.3,1.1,9.4c0.5,2.7,1.4,5.5,3.3,7.6c1.9,2.3,4.9,3.1,7.8,2.9c6.7-0.5,13.4-4.6,18.2-9
	c1.5-1.4,2.8-3,4-4.6c1.5-1.9,3.2-3.7,4.4-5.7C149.8,42.8,147.8,37.9,143.7,36z M143.3,43.9c-0.8,1.7-2.3,3.1-3.4,4.5
	c-1.3,1.6-2.5,3.2-3.9,4.6c-3.8,3.7-9.2,7-14.6,7.9c-0.4,0.1-1,0.1-1.5,0.1c-0.8,0-0.8,0-1.5-0.2c-0.2,0-0.5-0.1-0.7-0.2
	c-0.1,0-0.3-0.1-0.4-0.2c-0.1,0-0.1-0.1-0.1-0.1c0,0,0,0,0,0c0,0,0,0,0,0c-0.2-0.2-0.4-0.4-0.6-0.6c0-0.1-0.1-0.1-0.1-0.2
	c0,0,0-0.1-0.1-0.1c-0.1-0.2-0.2-0.4-0.4-0.6c-0.1-0.2-0.2-0.5-0.4-0.7c-0.2-0.4,0-0.1-0.2-0.4c-0.4-1.2-0.8-2.4-1-3.6
	c-0.9-4.3-0.8-9-1.2-13.6c7.9-0.8,16-1.2,23.9-1c1.7,0,3.8,0.2,5.2,1.3C143.2,41.7,143.8,42.8,143.3,43.9z"/>
<path class="st0" d="M907.7,168.1c-0.5-6.1-5.5-11.2-10.6-14c-5.1-2.8-11.1-3.6-16.8-2.1c-5.4,1.4-11.2,5-13.8,10.1
	c-1.6,3.2-1.2,6.7-0.1,10c1,3,2.2,5.9,1.6,9.1c-0.9,5.3-4.6,11.7-2.5,17.1c0.4,0.9,0.9,1.9,1.7,2.7c0.1,0.1,0.2,0.2,0.4,0.3
	c5.6,5.2,13.9,1.3,19.2-2.3c2.3-1.5,4.6-3.3,6.7-5.1c3.5-3,6.7-6.4,9.3-10c1.4-1.8,2.2-4,3-6.1C907,174.7,908,171.4,907.7,168.1z
	 M901.7,174.7c-0.7,2.2-1.5,4.3-2.8,6.2c-0.1,0.2-0.2,0.3-0.3,0.5c-0.1,0.1-0.2,0.3-0.3,0.4c-0.4,0.5-0.7,0.9-1.1,1.4
	c-1,1.1-2,2.2-3,3.3c-2.3,2.3-5,4.8-7.5,6.6c-1.6,1.2-3.2,2.3-4.9,3.3c-1.7,1-2.7,1.5-4.4,2c-0.4,0.1-0.7,0.2-1.1,0.3
	c-0.1,0-0.1,0-0.2,0.1c-0.1,0-0.2,0-0.3,0.1c-0.1,0-0.3,0-0.4,0.1c-0.5,0-0.9,0.1-1.4,0c-0.1,0-0.2,0-0.2,0c0,0-0.6-0.1-0.8-0.2
	c-0.1,0-0.3-0.1-0.4-0.1c0,0,0,0-0.1,0s0,0,0,0c-0.3-0.2-0.6-0.3-0.8-0.5c0,0,0,0,0,0c0,0,0,0,0,0c-0.2-0.2-0.4-0.3-0.5-0.5
	c-1.4-1.6-0.7-4.4-0.3-6.2c0.7-2.6,1.7-5.2,2.3-7.9c0.6-2.8,0.7-5.6,0-8.3c-0.6-2.5-1.9-4.9-2.2-7.4c-0.6-4.6,4.6-8.2,8.3-9.8
	c4.3-1.9,9.2-2,13.6-0.4c4.1,1.5,8.5,4.9,10,9.2C903.3,169.3,902.6,172.1,901.7,174.7z"/>
<g>
	<g>
		<g>
			<path class="st2" d="M205.8,30.1c-4.8-9.5-14.6-16.7-24.7-19.8c-6.1-1.8-12.5-2.2-18.8-2.4c-6.8-0.3-13.7-0.6-20.5-0.8
				c-13.7-0.6-27.5-1.1-41.2-1.7c-11.4-0.5-25-2-34.5,5.8c-4.2,3.4-6.5,8.3-6.7,13.7c-0.2,5.9,1.4,11.7,2.9,17.4
				c2.8,10.8,4.6,21.7,4.5,32.8c0,0.2,0,0.4,0,0.6c14.3-0.3,29-1.9,42.5-2.6c7.3-0.3,14.6-0.8,21.7-2.6c8-2.1,15.6-5.9,23.8-7.1
				c7.7-1.1,15.6,0.2,23.3,1.6c1.1,0.2,2.3,0.4,3.4,0.6c4-3,8-6.1,11.9-9.3c4.2-3.4,8.7-6.9,11.7-11.5c1.3-2,2.3-4.3,2.6-6.7
				C207.8,35.4,207.1,32.6,205.8,30.1z M147.4,46.8c-1.2,2-2.9,3.8-4.4,5.7c-1.3,1.6-2.5,3.2-4,4.6c-4.9,4.4-11.6,8.5-18.2,9
				c-2.9,0.2-5.9-0.6-7.8-2.9c-1.8-2.2-2.7-4.9-3.3-7.6c-0.6-3.1-0.9-6.3-1.1-9.4c-0.1-1.4-0.2-2.8-0.2-4.2c0-0.6-0.1-1.2-0.1-1.9
				c0-0.2-0.1-0.5-0.1-0.7c0,0,0,0,0,0c0-0.1,0-0.1,0-0.2c0,0,0,0,0,0c0-0.2,0-0.4-0.1-0.5c0-0.1,0-0.2,0-0.3c0-0.1,0-0.1,0-0.2
				c0-0.1,0-0.2,0.1-0.3c0-0.1,0.1-0.2,0.1-0.3c0,0,0-0.1,0-0.1c0.3-0.6,0.8-1.1,1.5-1.3c0.2-0.1,0.4-0.1,0.6-0.1c0,0,0.1,0,0.1,0
				c5.7-0.6,11.4-1,17.1-1.2c2.8-0.1,5.5-0.1,8.3-0.1c2.7,0,5.4,0.2,7.9,1.3C147.8,37.9,149.8,42.8,147.4,46.8z"/>
		</g>
	</g>
	<g>
		<path class="st2" d="M309.9,87.6c0,3.4-1.4,6.6-2.6,9.7c-0.5,1.2-0.9,2.4-1.3,3.7c-9.6-0.8-19.3-3-28.5-5.9
			c-9.3-3-18.4-6.6-27.4-10.2c1-1.1,2.2-2.2,3.3-3.1c4.1-3.2,8.9-5.5,13.8-7.1c5.5-1.8,11.4-3,17.2-3.4c6.2-0.4,12.8,0.2,18.1,3.8
			C306.6,77.8,309.9,82.5,309.9,87.6z"/>
	</g>
	<g>
		<path class="st2" d="M424.5,92.2c-21.8-2.6-44.4-8.8-65.4-3.2c-8.9,2.4-17.2,6.9-26.1,9.5c-7.1,2.1-14.4,2.9-21.8,2.7
			c0.7-1.8,1.4-3.7,2-5.6c0.2-0.7,0.5-1.4,0.7-2.2c0.5-0.1,0.9-0.3,1.2-0.7c4.3-5,8.9-9.8,13.8-14.2c4.5-4.1,9.3-8.3,15-10.6
			c3.1-1.2,6.3-2.2,9.5-3.1c3.2-1,6.4-1.9,9.6-2.6c6-1.3,12.1-1.7,18.2-1.2c11.7,1.1,23.5,5.5,32.9,12.4c4.5,3.3,8,7.6,9.4,13.1
			C424.1,88.4,424.3,90.3,424.5,92.2z"/>
	</g>
	<g>
		<path class="st2" d="M689.1,61.7c-2.1,7.8-7.5,14-13.5,19.2c-0.2,0.2-0.5,0.4-0.8,0.7c-12.8-7.1-26-13-40.5-14
			c-3.2-0.2-6.4-0.2-9.6,0.1c0.5-0.5,1-1,1.5-1.5c1.3-1.3,2.7-2.7,3.7-4.4c2-3.3,1.7-7.5-0.5-10.7c-2.2-3.2-5.8-5.1-9.5-6
			c-4.7-1.1-9.6-0.9-14.4-0.3c-2.3,0.3-4.9,0.5-7.1,1.2c-2.3,0.7-3.4,3-2.5,5.3c2.1,5.2,1.9,11.1,3.6,16.4c0.6,1.8,1.4,3.6,2.7,5
			c-11.4,3.9-22.4,9.4-33.6,13.9c-7.1,2.8-15.5,4.7-23.5,4.3c0.5-1.1,1-2.2,1.5-3.4c1.7-4.2,2.8-8.7,3.1-13.3
			c0.2-4.8-0.6-9.5-2.1-14c-2.9-8.7-8-17-8.1-26.4c-0.1-4,0.9-8.1,3.6-11.2c2.6-2.9,6.1-4.7,9.8-5.7c9.7-2.7,20-0.2,29.9-0.7
			c5.3-0.3,10.6-1.1,15.9-1.7c5.3-0.6,10.6-0.8,15.9-1c18.4-0.5,38.7-0.7,55.1,8.9C682.6,30.2,693.4,46.1,689.1,61.7z"/>
	</g>
	<g>
		<path class="st2" d="M758.2,105.4c0,0.1,0,0.3,0,0.5c-0.2,1.2-0.9,2.1-1.6,3c-1.5,1.7-3.2,3.2-4.7,4.8
			c-12.2-2.5-24.4-5.2-35.9-9.9c-2.8-1.1-5.5-2.4-8.1-3.7c1.8-0.3,3.5-0.5,5.2-0.8c5.5-0.8,11-1.4,16.6-1.8
			c4.9-0.4,9.8-0.8,14.7-0.3c4.1,0.4,8.5,1.6,11.6,4.4c0.8,0.7,1.5,1.4,2,2.4c0.1,0.2,0.2,0.4,0.2,0.7c0,0,0,0.3,0.1,0.4
			C758.2,105.2,758.2,105.3,758.2,105.4z"/>
	</g>
	<g>
		<path class="st2" d="M846.9,120.6c-2.1,0.8-4.1,1.5-6.1,2.5c-2.1,1.1-4,2.4-5.7,3.9c-1,0.9-1.9,1.8-2.8,2.8
			c-18.2-3.7-36.5-7.4-54.8-11.1c0.6-3.2,1.7-6.4,3.7-9c2.3-3.1,5.7-5.3,9.2-6.6c8.8-3.4,18.6-3.4,27.9-3.4c8.8,0,18.4,0,26.3,4.4
			c3.6,2,7.1,5,8,9.1C853.6,117.3,850.1,119.4,846.9,120.6z"/>
	</g>
	<g>
		<path class="st2" d="M978.2,67.1c-5,8.6-13.4,16.8-11.1,27.7c1,4.6,3.6,8.7,5.7,12.9c0.9,1.7,1.6,3.4,2.1,5.2
			c-8.4-0.4-16.8,1.4-24.2,5.3c-5.8,3-10.8,7.2-16.4,10.5c-26.1,15.5-59.1,9.9-88.8,3.9c-2.5-0.5-4.9-1-7.4-1.5
			c0.4-0.4,0.9-0.8,1.4-1.2c1.7-1.3,3.5-2.4,5.5-3.2c2-0.9,4.2-1.5,6.2-2.5c2.6-1.2,4.6-3.1,5.7-5.4c0.2,0,0.3-0.1,0.5-0.1
			c10.2-3.3,21.2-4.7,31.5-1c9,3.2,16.9,9.2,26.3,11.1c4.5,0.9,9.7,1,13.7-1.4c1.9-1.1,3.6-2.9,4.1-5.1c0.6-2.6-0.5-4.9-1.9-6.9
			c-2.7-3.9-4.4-8.4-5-13.1c-0.6-4.9,0.2-9.5,1.7-14.2c1.5-4.7,3.3-9.6,2.4-14.6c-0.9-5.4-5.4-8.2-10-10.3
			c-5.2-2.4-10.6-4.6-16.1-6.5c-5.1-1.8-10.4-3.1-15.6-4.8c-4.2-1.4-8-3.4-10-7.4c-1.7-3.5-1.7-7.6-0.6-11.3
			c2.6-8.7,11.7-13.4,19.9-15.1c5.5-1.1,11.3-1.1,16.9-0.8c5.9,0.2,11.8,0.6,17.6,0.9c11,0.6,22.5,0.5,33,4.3
			c7.9,2.8,15.7,8.6,18.4,16.9C986.8,48.8,983,58.8,978.2,67.1z"/>
	</g>
</g>
<g>
	<path class="st3" d="M1009.6,222.1c-0.7,4.1-3.7,7.4-7.1,9.5c-4.3,2.6-9.5,3.4-14.5,3.6c-5.7,0.3-11.5,0.1-17.2-0.3
		c-5.8-0.4-11.6-1.1-17.3-2c-4.7-0.8-10.4-1.3-13.8-5c-2.8-3.1-3.7-7.6-4.7-11.5c-0.5-2.1-3.5-2.4-4.6-0.6c-4,7.1-10.4,12.1-17.5,16
		c-7.8,4.3-16.4,7.5-25.1,9.7c-16.8,4.4-35.2,4.3-50.3-5.1c-6.8-4.3-12.7-10.4-15.9-17.9c0.1-0.1,0.1-0.1,0.2-0.2
		c3.1-4.2,4.2-9.7,5.7-14.6c1.6-5.7,3.2-11.4,4.9-17.1c0.2-0.6,0.3-1.2,0.5-1.7c11.1,3.9,21.1,11.4,32.7,13.6
		c0.4,0.9,0.9,1.9,1.7,2.7c0.1,0.1,0.2,0.2,0.4,0.3c5.6,5.2,13.9,1.3,19.2-2.3c2.3-1.5,4.6-3.3,6.7-5.1c7.3-3,14.5-6.9,21.6-10.2
		c19.7-9.1,42-13.8,63.5-12.1c0.2,0.7,0.4,1.4,0.6,2.1c1.5,5.2,2.9,10.7,5.4,15.6c4.7,9.1,14.4,13.3,20.8,20.9
		C1008.2,213.4,1010.4,217.7,1009.6,222.1z"/>
</g>
<g>
	<g>
		<path class="st0" d="M869,199.2c-0.4-0.5-0.8-1-1-1.6c-1,1-2.1,2.1-3.1,3.1c10.1,1.8,20-0.6,29.3-4.4c-0.8-1.4-1.6-2.8-2.4-4.2
			c-3.6,3.1-7.6,6.2-12,7.9C876.3,201.5,872,202.2,869,199.2c-2.3-2.3-5.8,1.2-3.5,3.5c8.9,9.1,22.6-0.8,29.8-7.1
			c1.8-1.6-0.1-5.1-2.4-4.2c-8.4,3.5-17.5,6.1-26.6,4.4c-1.6-0.3-3.9,1.1-3.1,3.1c0.6,1.4,1.3,2.6,2.3,3.8c0.9,1,2.6,0.9,3.5,0
			C870.1,201.7,869.9,200.3,869,199.2z"/>
	</g>
</g>
<g>
	<path class="st3" d="M828.1,183.3c-1.5,5.2-3,10.4-4.4,15.6c-0.8,2.8-1.6,5.6-2.4,8.3c-0.6,2.2-1.3,4.4-2.4,6.4
		c-2.3,4.1-6.3,6.3-10.4,8.1c-9.8,4.2-19.9,8.2-30.2,10.9c-5.1,1.3-10.2,2.4-15.5,2.8c-5.6,0.4-11.2,0.2-16.7-0.6
		c-9.7-1.3-20.1-3.4-27.8-9.8c-2.9-2.4-5.3-5.3-6.9-8.6c2.9-5.5,5-11.5,6.6-17.5c2-7.8,3.4-16,3.6-24.1c9.8,5.2,19.5,10.8,30.1,14
		c11.5,3.5,23.9,3.9,35.6,1.3c12.2-2.7,24-8.6,36.4-7.4C825.1,182.7,826.6,183,828.1,183.3z"/>
</g>
<g>
	<path class="st3" d="M716.5,172.2c0.1,6.4-0.8,12.8-2.1,19c-1.6,8-4,16-7.8,23.2c-0.3,0.3-0.5,0.6-0.6,1
		c-7.3,13.1-20.4,23.6-35.7,24.6c-4.2,0.3-8.2-0.4-12.4-1c-5-0.7-9.9-1.4-14.9-2c-9.7-1.2-19.5-2.4-29.3-3.4
		c-2.5-0.3-4.9-0.5-7.4-0.8c-5.4-0.6-10.8-1.1-16.3-1.2c-5.3-0.1-10.5,0.5-15.7,1.1c-5.2,0.6-10.4,1.1-15.7,1.1
		c-5.4,0-10.8-0.3-16.1-0.7c-9.3-0.7-18.9-1.1-27.7-4.2c-8.1-2.8-14.4-8.4-18.5-15.9c-4.1-7.4-5.5-15.6-5.2-23.8
		c4.3-0.2,8.8,0.3,13,0.6c18.1,1.4,36.2,2.8,54.2,4.2c13.6,1.1,27.2,2.1,40.8,2.6c13.9,0.5,28.7,0.1,40.6-7.2
		c10.4-6.4,17.5-17.4,28.4-22.8c13.3-6.6,29.5-3.2,43.1,2.9C713,170.5,714.8,171.3,716.5,172.2z"/>
</g>
<g>
	<path class="st3" d="M243,166.1c0.2,9.7-4.8,19.2-7.8,28.1c-1.9,5.8-3.8,11.6-6.7,16.9c-2.5,4.7-5.8,8.9-9.7,12.6
		c-7.6,7-17.4,11.3-27.3,13.8c-12,3-24.4,2.9-36.6,2c-13.6-1-27-3.2-40.6-4.3c-13.6-1.1-27.3-1.6-40.9-1.6c-6.9,0-13.8,0.1-20.7,0.3
		c-6.1,0.2-12.2,0.6-18.3,0.6c-5.1,0-10.3-0.3-15.1-2c-4.8-1.7-8.4-5-10.7-9.5c-2.5-5-3.2-11-3.4-16.5c-0.2-6.1,0.7-12.2,2.9-18
		c3.9-10.4,12.1-18.4,19.8-26.1c3.9-3.8,7.8-7.7,11.3-11.9c2.8-3.3,5.4-6.8,7.8-10.4c8.5,3.3,17,6.5,25.7,9.3
		c8.1,2.6,16.3,4.9,24.5,7c-0.5,1-1,2.1-1.5,3.1c-1.7,3.4-4.1,6.3-5.8,9.7c-1.7,3.6-2.9,8.1,0.3,11.3c2.7,2.7,7.2,3.1,10.7,3.4
		c2,0.2,4,0.2,6.1,0.3c0.9,0,1.8,0.1,2.7,0.1c0.4,0,0.8,0.1,1.1,0.1c0.2,0,0.4,0,0.6,0.1c0,0,0.1,0,0.1,0c0,0,0.1,0,0.1,0
		c6,1,11.9,2.8,18,2.5c4.9-0.3,9.9-1.9,13.6-5.3c4.3-3.9,5.4-9.7,4.4-15.3v0c11.2,1.8,22.5,3.5,33.8,5.2c7.8,1.1,15.6,2.3,23.4,1.7
		c9.6-0.7,18.8-3.9,28.2-5.9C236.3,167,239.6,166.4,243,166.1z"/>
</g>
<g>
	<path class="st3" d="M313.6,214.9c-0.2,2.9-1.4,5.6-3,7.9c-3.4,5-9.1,8-14.6,10.3c-6.3,2.7-12.9,5-19.5,6.7
		c-6.5,1.6-13.4,2.5-20.1,1.6c-10.2-1.4-20.8-8.3-23.8-18.6c-0.7-2.4-0.9-4.8-0.7-7.2c0-0.1,0-0.2,0-0.3c0.4-0.8,0.9-1.5,1.3-2.4
		c2.8-5.5,4.8-11.4,6.8-17.3c3.3-9.7,8.2-19.4,8-29.9c13.4-0.9,27,0.8,39.8,4.9c2.6,0.8,5.2,1.8,7.8,2.8c1.4,5.5,3.5,10.8,5.9,15.9
		c1.5,3,3.1,6,4.8,8.8c1.7,2.8,3.6,5.5,5.1,8.3C312.9,209,313.8,211.8,313.6,214.9z"/>
</g>
<g>
	<path class="st3" d="M447.8,206.6c0.1,5.3-2,10.1-5.8,13.8c-8.9,8.6-22.1,8.8-33.7,9.2c-13.9,0.4-27.9,1.1-41.8,1.2
		c-6.3,0.1-12.6-0.3-18.8-1.8c-5.5-1.3-10.8-3.4-15.7-6.1c-4.8-2.7-9.2-6-13.2-9.9c-0.1-0.1-0.1-0.1-0.2-0.2
		c-0.1-1.4-0.3-2.9-0.8-4.3c-1-3.2-2.8-6.2-4.7-9c-3.7-5.8-7.2-11.9-9.8-18.3c-0.7-1.8-1.4-3.7-2-5.5c10.6,4.6,21,10.1,31.8,14.1
		c15.4,5.8,33.1,8.6,48.2,1.9c4.5-2,8.7-4.8,13.4-6.1c4.5-1.2,9.2-1,13.9-0.7c10.7,0.5,22.1,1.3,30.7,7.8c3.4,2.5,5.9,5.7,7.8,9.2
		C447.6,203.5,447.8,205,447.8,206.6z"/>
</g>
</svg>
