<?xml version="1.0" encoding="utf-8"?>
<!-- Generator: Adobe Illustrator 27.9.4, SVG Export Plug-In . SVG Version: 9.03 Build 54784)  -->
<svg version="1.1" id="Calque_1" xmlns="http://www.w3.org/2000/svg" xmlns:xlink="http://www.w3.org/1999/xlink" x="0px" y="0px"
	 viewBox="0 0 1920 345" style="enable-background:new 0 0 1920 345;" xml:space="preserve">
<style type="text/css">
	.st0{fill:#CBFF88;}
	.st1{fill:#98CC4E;}
	.st2{fill:#E1FFB6;}
</style>
<polygon points="0,0 0,21.6 0,31.5 0,143.3 0,153.4 0,345 1920,345 1920,308.6 1920,298.8 1920,214.7 1920,204.7 1920,0 "/>
<path class="st0" d="M0,0v31.5c84,9,167.9,17.9,251.9,26.9C323.2,66,394.5,74,466.1,76.9c69.8,2.8,139.9,1.7,209.1,12
	c66.4,9.9,131.6,27.8,198.6,33.3c70.8,5.9,141.6-5.8,212.5-5.5c69.1,0.2,137.9,7.5,206.5,15.3c71.1,8.2,142,17.5,212.9,27
	c138.1,18.5,276.2,37.1,414.3,55.7V0H0z"/>
<path class="st1" d="M1920,345v-46.2c-99.1-9.7-198.2-19.5-297.2-30.2c-36.3-3.9-72.6-8.5-108.5-15.1c-34.1-6.2-68-13.9-102.1-20
	c-69.9-12.5-139.2-12.2-209.9-9.8c-143.7,5-286.4-6.5-428.8-24.9c-71.9-9.2-143.6-19.8-215.4-29.8c-70.5-9.8-141.6-19.4-213-16.2
	c-35.1,1.6-69.9,6.7-104.9,10.1c-34.6,3.4-69.1,4-103.7,1.1C90.6,160.1,45.3,151.4,0,143.3V345H1920z"/>
<path class="st2" d="M1920,214.8v84.1c-99.1-9.7-198.2-19.5-297.2-30.2c-36.3-3.9-72.6-8.5-108.5-15.1c-34.1-6.2-68-13.9-102.1-20
	c-69.9-12.5-139.2-12.2-209.9-9.8c-143.7,5-286.4-6.5-428.8-24.9c-71.9-9.2-143.6-19.8-215.4-29.8c-70.5-9.8-141.6-19.4-213-16.2
	c-35.1,1.6-69.9,6.7-104.9,10.1c-34.6,3.4-69.1,4-103.7,1.1C90.6,160.1,45.3,151.4,0,143.3V31.5c84,9,167.9,17.9,251.9,26.9
	C323.2,66,394.5,74,466.1,76.9c69.8,2.8,139.9,1.7,209.1,12c66.4,9.9,131.6,27.8,198.6,33.3c70.8,5.9,141.6-5.8,212.5-5.5
	c69.1,0.2,137.9,7.5,206.5,15.3c71.1,8.2,142,17.5,212.9,27C1643.8,177.6,1781.9,196.2,1920,214.8z"/>
<path d="M1920,204.8c-119.2-16-238.4-32-357.6-48.1c-69.9-9.4-139.9-18.9-209.9-27.5c-70.2-8.7-140.6-17.3-211.3-20.9
	c-35.2-1.8-70.5-2.1-105.7-0.4c-35.7,1.8-71.3,5.2-107,5.9c-70.1,1.4-137.8-14-206.3-26.9C654,74,586,70.2,516.9,68.5
	c-71.5-1.8-142.5-7.1-213.7-14.6C202.1,43.3,101.1,32.5,0,21.6v9.9c84,9,167.9,17.9,251.9,26.9C323.2,66,394.5,74,466.1,76.9
	c69.8,2.8,139.9,1.7,209.1,12c66.4,9.9,131.6,27.8,198.6,33.3c70.8,5.9,141.6-5.8,212.5-5.5c69.1,0.2,137.9,7.5,206.5,15.3
	c71.1,8.2,142,17.5,212.9,27c138.1,18.5,276.2,37.1,414.3,55.7V204.8z"/>
<path d="M1920,298.8c-99.1-9.7-198.2-19.5-297.2-30.2c-36.3-3.9-72.6-8.5-108.5-15.1c-34.1-6.2-68-13.9-102.1-20
	c-69.9-12.5-139.2-12.2-209.9-9.8c-143.7,5-286.4-6.5-428.8-24.9c-71.9-9.2-143.6-19.8-215.4-29.8c-70.5-9.8-141.6-19.4-213-16.2
	c-35.1,1.6-69.9,6.7-104.9,10.1c-34.6,3.4-69.1,4-103.7,1.1C90.6,160.1,45.3,151.4,0,143.3v10.1c28.7,5.1,57.3,10.4,86.1,14.6
	c33.7,4.9,67.7,8.4,101.8,8.1c35.1-0.3,69.8-5.1,104.6-8.9c71.5-7.8,141.9-4.1,213.1,4.8c72.6,9.2,145,20.3,217.6,30.1
	c141.1,19.1,283.2,35.1,425.8,33c70.8-1,141.9-7.4,212.6,0.7c70,8,138.3,27,208.2,36.4c71.1,9.5,142.8,15.5,214.2,22.7l136.1,13.7
	V298.8z"/>
</svg>
